<svg xmlns="http://www.w3.org/2000/svg" width="43.424" height="47.104" viewBox="0 0 43.424 47.104">
  <g id="icon" transform="translate(-20)">
    <path id="Path_28566" data-name="Path 28566" d="M57.144,108.153a.736.736,0,0,0-.995.307q-.065.123-.132.244H53.068a24.421,24.421,0,0,0,.829-2.775.736.736,0,1,0-1.433-.338,22.333,22.333,0,0,1-.978,3.113H45.833a57.379,57.379,0,0,0,.658-8.1h3.685a.736.736,0,1,0,0-1.472H46.491a56.472,56.472,0,0,0-.78-8.832h5.475a22.04,22.04,0,0,1,.893,2.421.736.736,0,1,0,1.408-.429q-.314-1.031-.7-1.992h2.806c.074.122.149.244.221.368a.736.736,0,1,0,1.274-.737c-.1-.166-.2-.33-.3-.493a.735.735,0,0,0-.306-.479,19.9,19.9,0,0,0-21.2-8.431.736.736,0,0,0,.338,1.433q.716-.169,1.448-.279a18.9,18.9,0,0,0-2.76,7.147H28.268a.732.732,0,0,0-.342,0H25.152q.274-.365.566-.718a.736.736,0,0,0-1.132-.941,19.725,19.725,0,0,0-1.323,1.789.735.735,0,0,0-.308.485,19.873,19.873,0,1,0,34.5,19.7A.736.736,0,0,0,57.144,108.153Zm-6.308,2.023a17.369,17.369,0,0,1-3.18,4.573,11.887,11.887,0,0,1-4.8,3.051,20.945,20.945,0,0,0,2.716-7.625ZM45.428,88.832a19.754,19.754,0,0,0-2.567-6.887,13.779,13.779,0,0,1,7.608,6.887ZM49.2,84.009a18.512,18.512,0,0,1,5.39,4.823H52.124A18.243,18.243,0,0,0,48.2,83.46Q48.707,83.719,49.2,84.009ZM36.8,85.416c.912-2.47,2.062-3.944,3.075-3.944,1.187,0,2.48,1.9,3.46,5.085.219.713.418,1.474.6,2.275H35.816A26.632,26.632,0,0,1,36.8,85.416Zm-2.748,11.51a.735.735,0,0,0,.779-.691A50.5,50.5,0,0,1,35.52,90.3h8.706a53.64,53.64,0,0,1,.793,8.832H41.344a.736.736,0,1,0,0,1.472h3.675a54.8,54.8,0,0,1-.666,8.1H41.344a.736.736,0,1,0,0,1.472h2.741c-.216,1.074-.468,2.083-.753,3.011-.98,3.184-2.273,5.085-3.46,5.085-.993,0-2.084-1.358-2.993-3.725a.736.736,0,1,0-1.374.527,12.7,12.7,0,0,0,1.388,2.729c-3.307-1.059-6.144-3.843-7.993-7.63a.736.736,0,0,0-.068-1.469h-.579a23.921,23.921,0,0,1-1.617-8.1H28.1a.736.736,0,1,0,0-1.472H26.635A23.683,23.683,0,0,1,28.562,90.3h5.466a52.464,52.464,0,0,0-.67,5.844A.736.736,0,0,0,34.049,96.926Zm-12.561,3.682h3.675a25.532,25.532,0,0,0,1.511,8.1H23.734A18.274,18.274,0,0,1,21.488,100.608Zm5.476-10.3a25.37,25.37,0,0,0-1.8,8.832H21.487A18.442,18.442,0,0,1,24.156,90.3Zm-2.329,19.872h2.639a20.329,20.329,0,0,0,2.115,3.661,17.029,17.029,0,0,0,2.159,2.441A18.531,18.531,0,0,1,24.635,110.176ZM48.163,116.3q.273-.252.539-.52a18.973,18.973,0,0,0,3.768-5.608h2.648A18.371,18.371,0,0,1,48.163,116.3Z" transform="translate(0 -72.64)" fill="#c8af91"/>
    <path id="Path_28567" data-name="Path 28567" d="M49.46,14.583a.736.736,0,0,0,.863-.005c.223-.163,5.453-4.046,5.453-8.69A5.888,5.888,0,0,0,44,5.888C44,10.628,49.237,14.424,49.46,14.583Zm.428-13.111A4.421,4.421,0,0,1,54.3,5.888c0,3.2-3.233,6.174-4.421,7.16-1.188-.969-4.411-3.9-4.411-7.16A4.421,4.421,0,0,1,49.888,1.472Z" transform="translate(-21.792)" fill="#ed3d3d"/>
    <path id="Path_28568" data-name="Path 28568" d="M81.888,34.944a.736.736,0,0,0-1.472,0,1.472,1.472,0,1,1-1.472-1.472.736.736,0,1,0,0-1.472,2.944,2.944,0,1,0,2.944,2.944Z" transform="translate(-50.848 -29.056)" fill="#ed3d3d"/>
    <path id="Path_28569" data-name="Path 28569" d="M369.888,216A5.9,5.9,0,0,0,364,221.888c0,4.74,5.237,8.536,5.46,8.695a.736.736,0,0,0,.863-.005c.223-.163,5.453-4.046,5.453-8.69A5.9,5.9,0,0,0,369.888,216Zm0,13.048c-1.188-.969-4.411-3.9-4.411-7.16a4.416,4.416,0,1,1,8.832,0C374.3,225.084,371.071,228.062,369.883,229.048Z" transform="translate(-312.352 -196.128)" fill="#7da751"/>
    <path id="Path_28570" data-name="Path 28570" d="M401.152,250.208a.736.736,0,0,0-.736.736,1.472,1.472,0,1,1-1.472-1.472.736.736,0,1,0,0-1.472,2.944,2.944,0,1,0,2.944,2.944A.736.736,0,0,0,401.152,250.208Z" transform="translate(-341.408 -225.184)" fill="#7da751"/>
    <path id="Path_28571" data-name="Path 28571" d="M116,285.888c0,4.74,5.237,8.536,5.46,8.695a.736.736,0,0,0,.863-.005c.223-.163,5.453-4.046,5.453-8.69a5.888,5.888,0,1,0-11.776,0Zm5.888-4.416a4.421,4.421,0,0,1,4.416,4.416c0,3.2-3.233,6.174-4.421,7.16-1.188-.969-4.411-3.9-4.411-7.16A4.421,4.421,0,0,1,121.888,281.472Z" transform="translate(-87.168 -254.24)" fill="#c8af91"/>
    <path id="Path_28572" data-name="Path 28572" d="M150.944,317.888a2.947,2.947,0,0,0,2.944-2.944.736.736,0,0,0-1.472,0,1.472,1.472,0,1,1-1.472-1.472.736.736,0,1,0,0-1.472,2.944,2.944,0,1,0,0,5.888Z" transform="translate(-116.224 -283.296)" fill="#c8af91"/>
  </g>
</svg>
