<svg xmlns="http://www.w3.org/2000/svg" width="22.8" height="22.8" viewBox="0 0 22.8 22.8">
  <g id="ic_search" transform="translate(0.4 0.4)">
    <g id="Group_2528" data-name="Group 2528">
      <g id="Group_2527" data-name="Group 2527">
        <path id="Path_1543" data-name="Path 1543" d="M9.688,0a9.688,9.688,0,1,0,9.688,9.688A9.7,9.7,0,0,0,9.688,0Zm0,17.588a7.9,7.9,0,1,1,7.9-7.9A7.909,7.909,0,0,1,9.688,17.588Z" fill="#fff" stroke="#fff" stroke-width="0.8"/>
      </g>
    </g>
    <g id="Group_2530" data-name="Group 2530" transform="translate(15.084 15.084)">
      <g id="Group_2529" data-name="Group 2529">
        <path id="Path_1544" data-name="Path 1544" d="M357.7,356.435l-5.127-5.127a.894.894,0,1,0-1.265,1.265l5.127,5.127a.894.894,0,0,0,1.265-1.265Z" transform="translate(-351.046 -351.046)" fill="#fff" stroke="#fff" stroke-width="0.8"/>
      </g>
    </g>
  </g>
</svg>
