<svg xmlns="http://www.w3.org/2000/svg" xmlns:xlink="http://www.w3.org/1999/xlink" width="405.087" height="420.156" viewBox="0 0 405.087 420.156">
  <defs>
    <linearGradient id="linear-gradient" x1="0.198" y1="0.055" x2="0.87" y2="0.876" gradientUnits="objectBoundingBox">
      <stop offset="0" stop-color="#b7e78c"/>
      <stop offset="0.725" stop-color="#77ce97"/>
      <stop offset="0.845" stop-color="#6ecb99"/>
      <stop offset="1" stop-color="#98db90"/>
    </linearGradient>
    <linearGradient id="linear-gradient-4" x1="0.311" y1="0.044" x2="0.571" y2="0.687" gradientUnits="objectBoundingBox">
      <stop offset="0" stop-color="#fc829b"/>
      <stop offset="1" stop-color="#d42749"/>
    </linearGradient>
    <filter id="Path_755" x="148.868" y="214.889" width="31.47" height="31.324" filterUnits="userSpaceOnUse">
      <feOffset dy="3" input="SourceAlpha"/>
      <feGaussianBlur stdDeviation="1.5" result="blur"/>
      <feFlood flood-opacity="0.071"/>
      <feComposite operator="in" in2="blur"/>
      <feComposite in="SourceGraphic"/>
    </filter>
  </defs>
  <g id="virus" transform="translate(-789.444 -235.698)">
    <path id="Path_751" data-name="Path 751" d="M-108.589-209.976c14.162,5.909,28.092,15.383,36.972,28.885,8.847,13.5,12.676,31.063,9.243,46.843-3.433,15.746-14.129,29.71-26.508,39.91-12.412,10.2-26.508,16.638-40.175,17.364-13.667.759-26.9-4.225-41.33-7.428-14.393-3.2-29.941-4.688-40.34-12.808-10.4-8.088-15.647-22.844-15.482-36.972.2-14.129,5.744-27.6,11.785-40.9,6.008-13.3,12.511-26.442,23.042-34,10.564-7.56,25.221-9.54,39.712-9.342A113.631,113.631,0,0,1-108.589-209.976Z" transform="translate(1135.655 612.75)" fill="#82000e" opacity="0.6"/>
    <g id="Group_151" data-name="Group 151" transform="translate(870.007 306.436)">
      <g id="Group_76" data-name="Group 76" transform="translate(0 0)">
        <g id="Group_30" data-name="Group 30" transform="translate(126.091 0.648)">
          <path id="Path_667" data-name="Path 667" d="M266.669,206.012a3.518,3.518,0,0,1-4.135,2.765l-3.525-.7a3.521,3.521,0,0,1-2.763-4.138h0a3.518,3.518,0,0,1,4.137-2.763l3.524.7a3.517,3.517,0,0,1,2.763,4.135Z" transform="translate(-256.119 -174.439)" fill="#5cb130" opacity="0.8" style="mix-blend-mode: multiply;isolation: isolate"/>
          <g id="Group_29" data-name="Group 29" transform="translate(0 0)">
            <g id="Group_28" data-name="Group 28">
              <path id="Path_668" data-name="Path 668" d="M271.559,184.259c-1.662-.5-4.011.273-5.5.281a7.346,7.346,0,0,1-3.645-.824c-2.707-1.458-7.175-.077-6.113,3.822.441,1.622,2.256,2.227,3.151,3.559,1.479,2.195-.269,4.578-.879,6.739-.817,2.9.9,5.592,1.354,8.419a7.652,7.652,0,0,1-.282,3.754c-.581,1.7-1.911,5.185.913,5.576,2.471.34,4.382-2.845,4.992-4.774a13.534,13.534,0,0,0-.211-8.109c-1.065-3.246-2.342-7.494.37-10.014,1.687-1.567,4.544-1.057,6.15-2.729C273.341,188.411,274.56,185.157,271.559,184.259Z" transform="translate(-256.137 -183.148)" fill="#67c1a6"/>
            </g>
            <path id="Path_671" data-name="Path 671" d="M270.927,189.034a4.968,4.968,0,0,0,1.489-3.98,4.7,4.7,0,0,1-2.5,2.717c-1.77.918-3.772,1.2-5.644,1.872-1.567.56-3.368,1.131-5.023.552a6.2,6.2,0,0,1-1.2-.579,4.058,4.058,0,0,1,.465.555,3.383,3.383,0,0,1,.545,2.386c.012-.006.021-.013.03-.018a1.159,1.159,0,0,1,1.659.481c.829,1.73-.331,2.864-.594,4.582-.5,3.259,1.61,5.629,2.011,8.7.229,1.737.309,4.327-.823,5.8a7.768,7.768,0,0,1-2.815,2.1,2.132,2.132,0,0,0,1.094.447c2.471.34,4.382-2.845,4.992-4.774a13.534,13.534,0,0,0-.211-8.109c-1.065-3.246-2.342-7.494.37-10.014C266.463,190.2,269.32,190.706,270.927,189.034Z" transform="translate(-255.208 -182.224)" fill="#91d584"/>
          </g>
        </g>
        <g id="Group_33" data-name="Group 33" transform="translate(153.842 12.291)">
          <path id="Path_672" data-name="Path 672" d="M281.184,212.557a3.522,3.522,0,0,1-4.893.907l-2.962-2.034a3.52,3.52,0,0,1-.906-4.893h0a3.52,3.52,0,0,1,4.891-.907l2.962,2.036a3.521,3.521,0,0,1,.907,4.891Z" transform="translate(-271.804 -180.518)" fill="#5cb130" opacity="0.8" style="mix-blend-mode: multiply;isolation: isolate"/>
          <g id="Group_32" data-name="Group 32" transform="translate(2.394 0)">
            <g id="Group_31" data-name="Group 31" transform="translate(0)">
              <path id="Path_673" data-name="Path 673" d="M296.9,194.483c-1.332-1.112-3.8-1.329-5.171-1.913a7.336,7.336,0,0,1-3.023-2.195c-1.914-2.408-6.563-2.9-7.128,1.1-.233,1.665,1.2,2.934,1.491,4.513.494,2.6-2.051,4.1-3.463,5.846-1.9,2.343-1.382,5.494-2.079,8.272a7.637,7.637,0,0,1-1.74,3.338c-1.2,1.329-3.8,4.011-1.359,5.482,2.135,1.286,5.147-.885,6.468-2.416a13.527,13.527,0,0,0,3.005-7.536c.3-3.4.8-7.812,4.29-9.058,2.168-.772,4.594.824,6.73-.08C296.9,199,299.3,196.493,296.9,194.483Z" transform="translate(-273.417 -188.517)" fill="#67c1a6"/>
            </g>
            <path id="Path_676" data-name="Path 676" d="M294.861,197.624a4.954,4.954,0,0,0,2.937-3.069,4.693,4.693,0,0,1-3.366,1.512c-1.991.146-3.939-.386-5.926-.506-1.659-.1-3.543-.288-4.835-1.475a6.183,6.183,0,0,1-.869-1,3.8,3.8,0,0,1,.206.693,3.393,3.393,0,0,1-.437,2.409.247.247,0,0,1,.033,0,1.16,1.16,0,0,1,1.333,1.1c.08,1.917-1.436,2.5-2.354,3.977-1.743,2.8-.742,5.806-1.583,8.791-.478,1.685-1.424,4.1-3.046,5.009a7.783,7.783,0,0,1-3.418.82,2.1,2.1,0,0,0,.83.843c2.135,1.286,5.147-.885,6.468-2.416a13.527,13.527,0,0,0,3.005-7.536c.3-3.4.8-7.812,4.29-9.058C290.3,196.932,292.726,198.529,294.861,197.624Z" transform="translate(-273.358 -186.303)" fill="#91d584"/>
          </g>
        </g>
        <g id="Group_36" data-name="Group 36" transform="translate(184.333 40.557)">
          <path id="Path_677" data-name="Path 677" d="M292.432,227.523a3.52,3.52,0,0,1-4.291-2.514l-.907-3.478a3.52,3.52,0,0,1,2.517-4.293h0a3.516,3.516,0,0,1,4.29,2.517l.91,3.475a3.519,3.519,0,0,1-2.518,4.293Z" transform="translate(-287.119 -205.358)" fill="#5cb130" opacity="0.8" style="mix-blend-mode: multiply;isolation: isolate"/>
          <g id="Group_35" data-name="Group 35" transform="translate(1.729 0)">
            <g id="Group_34" data-name="Group 34" transform="translate(0)">
              <path id="Path_678" data-name="Path 678" d="M321.4,222.459c-.278-1.714-2-3.493-2.654-4.832a7.3,7.3,0,0,1-.848-3.64c.126-3.072-3.062-6.489-6.109-3.833-1.265,1.1-1.019,3-1.826,4.388-1.332,2.29-4.238,1.757-6.446,2.152-2.968.527-4.639,3.248-6.988,4.891a7.622,7.622,0,0,1-3.5,1.384c-1.779.218-5.5.545-4.617,3.255.772,2.371,4.47,2.7,6.471,2.409a13.525,13.525,0,0,0,7.206-3.729c2.455-2.376,5.721-5.378,9.171-4.037,2.146.835,2.933,3.629,5.141,4.345C318.447,225.871,321.906,225.547,321.4,222.459Z" transform="translate(-288.283 -209.201)" fill="#67c1a6"/>
            </g>
            <path id="Path_681" data-name="Path 681" d="M316.4,223.682a4.971,4.971,0,0,0,4.231-.4,4.7,4.7,0,0,1-3.537-1.062c-1.6-1.2-2.723-2.872-4.147-4.263-1.186-1.163-2.487-2.536-2.688-4.278a6.293,6.293,0,0,1,0-1.328,4.054,4.054,0,0,1-.3.659,3.421,3.421,0,0,1-1.908,1.534.311.311,0,0,1,.027.019,1.156,1.156,0,0,1,.29,1.7c-1.192,1.5-2.722.952-4.38,1.466-3.15.973-4.363,3.9-6.951,5.607-1.464.961-3.758,2.163-5.583,1.794a7.772,7.772,0,0,1-3.12-1.62,2.1,2.1,0,0,0,.076,1.182c.772,2.371,4.47,2.7,6.471,2.409a13.524,13.524,0,0,0,7.206-3.729c2.455-2.376,5.721-5.378,9.171-4.037C313.409,220.172,314.2,222.967,316.4,223.682Z" transform="translate(-288.282 -207.671)" fill="#91d584"/>
          </g>
        </g>
        <g id="Group_39" data-name="Group 39" transform="translate(195.036 89.742)">
          <path id="Path_682" data-name="Path 682" d="M294.011,249.133a3.521,3.521,0,0,1-3.524-3.512l-.006-3.592A3.524,3.524,0,0,1,294,238.5h0a3.521,3.521,0,0,1,3.522,3.513l.006,3.594a3.521,3.521,0,0,1-3.515,3.522Z" transform="translate(-290.481 -233.163)" fill="#5cb130" opacity="0.8" style="mix-blend-mode: multiply;isolation: isolate"/>
          <g id="Group_38" data-name="Group 38" transform="translate(9.597 0)">
            <g id="Group_37" data-name="Group 37" transform="translate(0)">
              <path id="Path_683" data-name="Path 683" d="M324.356,249.673c.162-1.727-1.057-3.882-1.357-5.344a7.334,7.334,0,0,1,.094-3.735c.9-2.939-1.335-7.05-4.949-5.245-1.5.753-1.74,2.649-2.872,3.79-1.864,1.883-4.542.64-6.779.465-3.005-.235-5.307,1.978-7.99,2.979a7.642,7.642,0,0,1-3.738.462c-1.774-.235-5.459-.855-5.286,1.991.153,2.489,3.648,3.736,5.661,3.957a13.523,13.523,0,0,0,7.909-1.8c2.976-1.682,6.892-3.767,9.894-1.6,1.867,1.345,1.927,4.248,3.883,5.493C320.635,252.234,324.065,252.79,324.356,249.673Z" transform="translate(-291.473 -234.907)" fill="#67c1a6"/>
            </g>
            <path id="Path_686" data-name="Path 686" d="M318.825,249.883a4.977,4.977,0,0,0,4.195.682,4.707,4.707,0,0,1-3.154-1.917c-1.247-1.558-1.918-3.464-2.945-5.167-.858-1.426-1.772-3.081-1.528-4.819a6.123,6.123,0,0,1,.333-1.284,3.958,3.958,0,0,1-.454.564,3.407,3.407,0,0,1-2.232,1.005.189.189,0,0,1,.024.025,1.156,1.156,0,0,1-.147,1.718c-1.532,1.154-2.873.239-4.609.319-3.292.153-5.2,2.683-8.139,3.683-1.656.564-4.177,1.151-5.852.333a7.738,7.738,0,0,1-2.612-2.351,2.08,2.08,0,0,0-.226,1.164c.153,2.489,3.648,3.736,5.661,3.957a13.523,13.523,0,0,0,7.909-1.8c2.976-1.682,6.891-3.767,9.894-1.6C316.809,245.736,316.869,248.639,318.825,249.883Z" transform="translate(-291.473 -233.709)" fill="#91d584"/>
          </g>
        </g>
        <g id="Group_42" data-name="Group 42" transform="translate(200.908 123.169)">
          <path id="Path_687" data-name="Path 687" d="M291.243,268.4a3.52,3.52,0,0,1-2.91-4.034l.575-3.546a3.518,3.518,0,0,1,4.036-2.91h0a3.516,3.516,0,0,1,2.91,4.034l-.575,3.547a3.518,3.518,0,0,1-4.036,2.909Z" transform="translate(-288.287 -256.847)" fill="#5cb130" opacity="0.8" style="mix-blend-mode: multiply;isolation: isolate"/>
          <g id="Group_41" data-name="Group 41" transform="translate(1.863 0)">
            <g id="Group_40" data-name="Group 40" transform="translate(0)">
              <path id="Path_688" data-name="Path 688" d="M321.254,272.518c.437-1.676-.417-4-.48-5.491a7.369,7.369,0,0,1,.693-3.672c1.362-2.758-.178-7.172-4.037-5.972-1.605.5-2.144,2.333-3.445,3.276-2.14,1.558-4.582-.1-6.765-.634-2.927-.716-5.555,1.1-8.367,1.651a7.643,7.643,0,0,1-3.76-.147c-1.717-.517-5.251-1.724-5.537,1.114-.252,2.481,3,4.275,4.946,4.817a13.526,13.526,0,0,0,8.1-.5c3.2-1.181,7.407-2.608,10.019.012,1.629,1.629,1.221,4.5,2.949,6.048C317.167,274.445,320.462,275.548,321.254,272.518Z" transform="translate(-289.542 -257.18)" fill="#67c1a6"/>
            </g>
            <path id="Path_691" data-name="Path 691" d="M315.568,272.039a4.965,4.965,0,0,0,4.029,1.347,4.708,4.708,0,0,1-2.8-2.4c-.98-1.739-1.335-3.73-2.071-5.576-.618-1.544-1.253-3.325-.735-5a6.472,6.472,0,0,1,.538-1.216,3.888,3.888,0,0,1-.539.484,3.388,3.388,0,0,1-2.364.631l.019.03a1.158,1.158,0,0,1-.422,1.673c-1.7.889-2.876-.229-4.6-.432-3.276-.38-5.568,1.812-8.624,2.322-1.728.291-4.312.465-5.831-.612a7.811,7.811,0,0,1-2.2-2.741,2.1,2.1,0,0,0-.407,1.112c-.252,2.481,3,4.275,4.946,4.817a13.526,13.526,0,0,0,8.1-.5c3.2-1.181,7.407-2.608,10.019.012C314.248,267.62,313.84,270.495,315.568,272.039Z" transform="translate(-289.542 -256.202)" fill="#91d584"/>
          </g>
        </g>
        <g id="Group_45" data-name="Group 45" transform="translate(178.549 154.465)">
          <path id="Path_692" data-name="Path 692" d="M281.56,282.521a3.518,3.518,0,0,1-1.084-4.856l1.927-3.034a3.519,3.519,0,0,1,4.859-1.082h0a3.523,3.523,0,0,1,1.081,4.857l-1.927,3.034a3.52,3.52,0,0,1-4.856,1.081Z" transform="translate(-279.928 -273)" fill="#5cb130" opacity="0.8" style="mix-blend-mode: multiply;isolation: isolate"/>
          <g id="Group_44" data-name="Group 44" transform="translate(2.703 2.426)">
            <g id="Group_43" data-name="Group 43" transform="translate(0 0)">
              <path id="Path_693" data-name="Path 693" d="M307.321,297.284c1.063-1.372,1.192-3.843,1.727-5.239a7.321,7.321,0,0,1,2.085-3.1c2.337-2,2.664-6.664-1.353-7.084-1.675-.174-2.894,1.3-4.459,1.653-2.582.587-4.173-1.9-5.965-3.253-2.41-1.81-5.54-1.183-8.342-1.78a7.63,7.63,0,0,1-3.4-1.62c-1.371-1.152-4.143-3.653-5.527-1.161-1.209,2.18,1.069,5.113,2.648,6.378a13.5,13.5,0,0,0,7.638,2.734c3.411.18,7.834.526,9.2,3.965.851,2.138-.658,4.618.321,6.721C302.806,297.44,305.4,299.755,307.321,297.284Z" transform="translate(-281.748 -274.634)" fill="#67c1a6"/>
            </g>
            <path id="Path_696" data-name="Path 696" d="M301.9,295.43a4.963,4.963,0,0,0,3.172,2.824,4.7,4.7,0,0,1-1.63-3.308c-.215-1.984.245-3.951.3-5.94.043-1.663.162-3.55,1.3-4.885a6.208,6.208,0,0,1,.971-.9,3.888,3.888,0,0,1-.686.232,3.413,3.413,0,0,1-2.423-.35l.009.031a1.162,1.162,0,0,1-1.051,1.372c-1.911.148-2.551-1.345-4.055-2.21-2.858-1.642-5.831-.533-8.841-1.267-1.7-.419-4.144-1.277-5.116-2.866a7.791,7.791,0,0,1-.943-3.387,2.132,2.132,0,0,0-.812.861c-1.209,2.18,1.069,5.113,2.648,6.378a13.5,13.5,0,0,0,7.638,2.734c3.411.18,7.834.526,9.2,3.965C302.428,290.848,300.92,293.328,301.9,295.43Z" transform="translate(-281.748 -274.566)" fill="#91d584"/>
          </g>
        </g>
        <g id="Group_48" data-name="Group 48" transform="translate(157.748 168.659)">
          <path id="Path_697" data-name="Path 697" d="M275.683,285.094a3.52,3.52,0,0,1,2.359-4.379l3.442-1.029a3.519,3.519,0,0,1,4.38,2.361h0a3.518,3.518,0,0,1-2.362,4.379l-3.441,1.029a3.515,3.515,0,0,1-4.379-2.361Z" transform="translate(-275.534 -279.537)" fill="#5cb130" opacity="0.8" style="mix-blend-mode: multiply;isolation: isolate"/>
          <g id="Group_47" data-name="Group 47" transform="translate(2.843 1.764)">
            <g id="Group_46" data-name="Group 46" transform="translate(0 0)">
              <path id="Path_698" data-name="Path 698" d="M284.712,313.717c1.7-.336,3.418-2.119,4.732-2.827a7.368,7.368,0,0,1,3.607-.974c3.075.018,6.375-3.292,3.614-6.244-1.152-1.224-3.037-.909-4.452-1.668-2.336-1.247-1.91-4.171-2.38-6.363-.636-2.951-3.411-4.521-5.138-6.81a7.617,7.617,0,0,1-1.51-3.449c-.281-1.768-.741-5.475-3.417-4.495-2.342.855-2.541,4.562-2.178,6.551a13.538,13.538,0,0,0,3.987,7.068c2.462,2.37,5.577,5.528,4.363,9.022-.759,2.172-3.522,3.06-4.158,5.291C281.2,310.884,281.643,314.329,284.712,313.717Z" transform="translate(-277.448 -280.725)" fill="#67c1a6"/>
            </g>
            <path id="Path_701" data-name="Path 701" d="M281.782,308.818a4.971,4.971,0,0,0,.548,4.214,4.694,4.694,0,0,1,.934-3.571c1.137-1.641,2.772-2.824,4.112-4.3,1.121-1.231,2.446-2.576,4.182-2.839a6.279,6.279,0,0,1,1.327-.048,4.024,4.024,0,0,1-.671-.275,3.427,3.427,0,0,1-1.6-1.85.139.139,0,0,1-.016.028,1.158,1.158,0,0,1-1.69.349c-1.543-1.14-1.048-2.686-1.622-4.326-1.085-3.114-4.057-4.219-5.852-6.749-1.013-1.426-2.3-3.674-1.991-5.512a7.72,7.72,0,0,1,1.507-3.176,2.083,2.083,0,0,0-1.179.119c-2.342.855-2.541,4.562-2.178,6.551a13.538,13.538,0,0,0,3.987,7.068c2.462,2.37,5.577,5.528,4.363,9.022C285.181,305.7,282.418,306.588,281.782,308.818Z" transform="translate(-277.448 -280.723)" fill="#91d584"/>
          </g>
        </g>
        <g id="Group_51" data-name="Group 51" transform="translate(123.563 178.623)">
          <path id="Path_702" data-name="Path 702" d="M254.508,293.051a3.52,3.52,0,0,1,3.384-3.646l3.589-.135a3.521,3.521,0,0,1,3.648,3.387h0a3.52,3.52,0,0,1-3.384,3.646l-3.592.134a3.516,3.516,0,0,1-3.645-3.386Z" transform="translate(-254.4 -289.268)" fill="#5cb130" opacity="0.8" style="mix-blend-mode: multiply;isolation: isolate"/>
          <g id="Group_50" data-name="Group 50" transform="translate(0 1.513)">
            <g id="Group_49" data-name="Group 49" transform="translate(0 0)">
              <path id="Path_703" data-name="Path 703" d="M256.848,323.323c1.733.1,3.84-1.2,5.292-1.549a7.343,7.343,0,0,1,3.736-.04c2.971.789,7-1.586,5.063-5.133-.806-1.476-2.708-1.645-3.889-2.735-1.948-1.792-.8-4.513-.707-6.758.126-3.013-2.166-5.231-3.262-7.879a7.6,7.6,0,0,1-.594-3.715c.172-1.785.658-5.488-2.18-5.212-2.483.238-3.607,3.779-3.752,5.8a13.509,13.509,0,0,0,2.083,7.839c1.788,2.912,4.012,6.752,1.959,9.83-1.28,1.914-4.182,2.079-5.352,4.078C254.156,319.7,253.722,323.144,256.848,323.323Z" transform="translate(-254.435 -290.287)" fill="#67c1a6"/>
            </g>
            <path id="Path_706" data-name="Path 706" d="M255.245,317.845a4.965,4.965,0,0,0-.532,4.217,4.7,4.7,0,0,1,1.8-3.222c1.513-1.3,3.393-2.042,5.059-3.127,1.394-.91,3.014-1.878,4.759-1.7a6.041,6.041,0,0,1,1.3.287,4.14,4.14,0,0,1-.581-.435,3.412,3.412,0,0,1-1.084-2.192c-.009,0-.016.016-.025.022a1.159,1.159,0,0,1-1.723-.085c-1.207-1.489-.34-2.864-.483-4.6-.27-3.283-2.867-5.105-3.972-8-.621-1.635-1.3-4.135-.542-5.839a7.736,7.736,0,0,1,2.256-2.694,2.066,2.066,0,0,0-1.17-.183c-2.483.238-3.607,3.779-3.752,5.8a13.509,13.509,0,0,0,2.083,7.839c1.788,2.912,4.012,6.752,1.959,9.83C259.316,315.682,256.415,315.847,255.245,317.845Z" transform="translate(-254.434 -290.287)" fill="#91d584"/>
          </g>
        </g>
        <g id="Group_54" data-name="Group 54" transform="translate(87.515 172.661)">
          <path id="Path_707" data-name="Path 707" d="M233.482,289.122a3.524,3.524,0,0,1,4.568-1.974l3.34,1.329a3.519,3.519,0,0,1,1.972,4.568h0a3.519,3.519,0,0,1-4.566,1.972l-3.341-1.328a3.52,3.52,0,0,1-1.972-4.568Z" transform="translate(-221.734 -286.902)" fill="#5cb130" opacity="0.8" style="mix-blend-mode: multiply;isolation: isolate"/>
          <g id="Group_53" data-name="Group 53" transform="translate(0 2.344)">
            <g id="Group_52" data-name="Group 52" transform="translate(0 0)">
              <path id="Path_708" data-name="Path 708" d="M226.938,317.436c1.546.79,3.994.456,5.464.72a7.345,7.345,0,0,1,3.438,1.47c2.4,1.92,7.041,1.372,6.7-2.656-.143-1.676-1.818-2.6-2.457-4.069-1.059-2.428,1.091-4.455,2.083-6.468,1.329-2.706.126-5.663.192-8.526a7.615,7.615,0,0,1,.956-3.643c.875-1.561,2.815-4.753.107-5.65-2.368-.777-4.823,2.008-5.772,3.794a13.514,13.514,0,0,0-1.258,8.016c.46,3.386.947,7.794-2.172,9.78-1.944,1.238-4.663.218-6.544,1.573C225.939,313.032,224.151,316.01,226.938,317.436Z" transform="translate(-225.489 -288.48)" fill="#67c1a6"/>
            </g>
            <path id="Path_711" data-name="Path 711" d="M227.678,311.775a4.987,4.987,0,0,0-2.186,3.645,4.713,4.713,0,0,1,2.948-2.218c1.91-.584,3.928-.5,5.892-.821,1.641-.269,3.516-.5,5.04.362a6.1,6.1,0,0,1,1.071.79,4.343,4.343,0,0,1-.356-.633,3.4,3.4,0,0,1-.105-2.446l-.033.012a1.156,1.156,0,0,1-1.543-.774c-.5-1.85.845-2.756,1.412-4.4,1.078-3.112-.564-5.827-.407-8.921.092-1.749.48-4.306,1.861-5.56a7.754,7.754,0,0,1,3.15-1.558,2.075,2.075,0,0,0-1-.641c-2.368-.777-4.823,2.008-5.772,3.794a13.514,13.514,0,0,0-1.258,8.016c.46,3.386.947,7.794-2.172,9.78C232.278,311.441,229.56,310.421,227.678,311.775Z" transform="translate(-225.488 -288.48)" fill="#91d584"/>
          </g>
        </g>
        <g id="Group_57" data-name="Group 57" transform="translate(53.818 164.374)">
          <path id="Path_712" data-name="Path 712" d="M220.585,281.382a3.521,3.521,0,0,1,4.826-1.209l3.083,1.85a3.517,3.517,0,0,1,1.207,4.826h0a3.519,3.519,0,0,1-4.826,1.206l-3.081-1.85a3.514,3.514,0,0,1-1.209-4.823Z" transform="translate(-204.61 -279.673)" fill="#5cb130" opacity="0.8" style="mix-blend-mode: multiply;isolation: isolate"/>
          <g id="Group_56" data-name="Group 56" transform="translate(0 2.656)">
            <g id="Group_55" data-name="Group 55" transform="translate(0 0)">
              <path id="Path_713" data-name="Path 713" d="M210.787,307.553c1.394,1.03,3.87,1.094,5.277,1.59a7.345,7.345,0,0,1,3.154,2.006c2.058,2.282,6.73,2.489,7.044-1.54.132-1.676-1.372-2.857-1.767-4.415-.655-2.563,1.794-4.217,3.095-6.047,1.749-2.456,1.039-5.565,1.567-8.384a7.633,7.633,0,0,1,1.529-3.441c1.117-1.4,3.546-4.236,1.019-5.557-2.213-1.151-5.084,1.2-6.308,2.814a13.531,13.531,0,0,0-2.535,7.705c-.091,3.417-.322,7.845-3.723,9.3-2.117.907-4.636-.538-6.712.5C210.509,303.047,208.266,305.7,210.787,307.553Z" transform="translate(-209.663 -281.462)" fill="#67c1a6"/>
            </g>
            <path id="Path_716" data-name="Path 716" d="M212.42,302.09a4.958,4.958,0,0,0-2.741,3.245,4.692,4.692,0,0,1,3.267-1.717c1.978-.27,3.956.14,5.946.14,1.662,0,3.552.068,4.917,1.172a6.129,6.129,0,0,1,.928.947,4.061,4.061,0,0,1-.248-.682,3.4,3.4,0,0,1,.29-2.429l-.034.009a1.156,1.156,0,0,1-1.4-1.013c-.2-1.908,1.276-2.587,2.1-4.113,1.567-2.9.382-5.843,1.036-8.871.371-1.715,1.167-4.177,2.729-5.188a7.785,7.785,0,0,1,3.362-1.028,2.119,2.119,0,0,0-.881-.794c-2.213-1.151-5.084,1.2-6.308,2.814a13.531,13.531,0,0,0-2.535,7.705c-.091,3.417-.322,7.845-3.723,9.3C217.014,302.5,214.5,301.054,212.42,302.09Z" transform="translate(-209.656 -281.462)" fill="#91d584"/>
          </g>
        </g>
        <g id="Group_60" data-name="Group 60" transform="translate(16.475 154.179)">
          <path id="Path_717" data-name="Path 717" d="M211.272,271.275a3.522,3.522,0,0,1,4.915.793l2.1,2.913a3.518,3.518,0,0,1-.793,4.914h0a3.516,3.516,0,0,1-4.909-.8l-2.1-2.912a3.518,3.518,0,0,1,.791-4.911Z" transform="translate(-186.524 -270.609)" fill="#5cb130" opacity="0.8" style="mix-blend-mode: multiply;isolation: isolate"/>
          <g id="Group_59" data-name="Group 59" transform="translate(0 3.121)">
            <g id="Group_58" data-name="Group 58" transform="translate(0 0)">
              <path id="Path_718" data-name="Path 718" d="M194.564,289.242c.879,1.5,3.124,2.535,4.222,3.543a7.35,7.35,0,0,1,2.109,3.09c.99,2.912,5.2,4.939,7.08,1.363.783-1.491-.135-3.167.116-4.752.411-2.615,3.314-3.172,5.233-4.337,2.575-1.567,3.15-4.707,4.744-7.086a7.592,7.592,0,0,1,2.763-2.558c1.578-.846,4.93-2.5,3.126-4.706-1.578-1.93-5.144-.9-6.9.1a13.528,13.528,0,0,0-5.368,6.087c-1.431,3.1-3.39,7.079-7.092,7.076-2.3,0-4.046-2.319-6.361-2.19C196.087,284.99,192.979,286.541,194.564,289.242Z" transform="translate(-194.13 -272.712)" fill="#67c1a6"/>
            </g>
            <path id="Path_721" data-name="Path 721" d="M198.132,284.868a4.971,4.971,0,0,0-3.8,1.9,4.693,4.693,0,0,1,3.678-.288c1.924.535,3.58,1.691,5.407,2.474,1.529.656,3.24,1.466,4.057,3.017a6.4,6.4,0,0,1,.481,1.235,4.021,4.021,0,0,1,.037-.72,3.387,3.387,0,0,1,1.225-2.119.106.106,0,0,1-.033-.009,1.158,1.158,0,0,1-.887-1.482c.572-1.831,2.195-1.871,3.556-2.951,2.582-2.046,2.655-5.217,4.453-7.741,1.016-1.427,2.719-3.377,4.554-3.692a7.8,7.8,0,0,1,3.5.38,2.1,2.1,0,0,0-.5-1.075c-1.578-1.93-5.144-.9-6.9.1a13.528,13.528,0,0,0-5.368,6.087c-1.431,3.1-3.39,7.079-7.092,7.076C202.192,287.058,200.447,284.739,198.132,284.868Z" transform="translate(-194.032 -272.712)" fill="#91d584"/>
          </g>
        </g>
        <g id="Group_63" data-name="Group 63" transform="translate(0 123.822)">
          <path id="Path_722" data-name="Path 722" d="M206.5,257.31a3.516,3.516,0,0,1,3.193,3.813l-.318,3.579a3.517,3.517,0,0,1-3.815,3.194h0a3.518,3.518,0,0,1-3.193-3.816l.318-3.579a3.516,3.516,0,0,1,3.815-3.191Z" transform="translate(-175.625 -253.643)" fill="#5cb130" opacity="0.8" style="mix-blend-mode: multiply;isolation: isolate"/>
          <g id="Group_62" data-name="Group 62" transform="translate(0 0)">
            <g id="Group_61" data-name="Group 61">
              <path id="Path_723" data-name="Path 723" d="M184.412,256.934c-.315,1.706.705,3.96.873,5.444a7.363,7.363,0,0,1-.429,3.712c-1.157,2.85.695,7.142,4.458,5.669,1.565-.616,1.971-2.483,3.2-3.519,2.024-1.706,4.581-.229,6.795.147,2.973.5,5.46-1.494,8.226-2.251a7.642,7.642,0,0,1,3.76-.125c1.749.4,5.361,1.342,5.447-1.507.07-2.493-3.3-4.051-5.283-4.447a13.511,13.511,0,0,0-8.041,1.081c-3.111,1.409-7.2,3.135-10,.713-1.736-1.51-1.538-4.407-3.375-5.822C188.347,254.717,184.982,253.856,184.412,256.934Z" transform="translate(-184.352 -254.835)" fill="#67c1a6"/>
            </g>
            <path id="Path_726" data-name="Path 726" d="M189.53,256.027a4.953,4.953,0,0,0-4.116-1.051,4.7,4.7,0,0,1,2.971,2.187c1.1,1.665,1.6,3.623,2.468,5.413.728,1.5,1.489,3.225,1.088,4.936a6.16,6.16,0,0,1-.447,1.25,4.182,4.182,0,0,1,.5-.523,3.408,3.408,0,0,1,2.312-.8l-.019-.025a1.158,1.158,0,0,1,.3-1.7c1.627-1.013,2.881.021,4.617.1,3.3.143,5.423-2.207,8.437-2.937,1.7-.414,4.265-.774,5.858.192a7.781,7.781,0,0,1,2.391,2.575,2.081,2.081,0,0,0,.331-1.137c.07-2.493-3.3-4.051-5.283-4.447a13.511,13.511,0,0,0-8.041,1.081c-3.111,1.409-7.2,3.135-10,.713C191.169,260.339,191.367,257.442,189.53,256.027Z" transform="translate(-183.836 -254.834)" fill="#91d584"/>
          </g>
        </g>
        <g id="Group_66" data-name="Group 66" transform="translate(3.116 83.835)">
          <path id="Path_727" data-name="Path 727" d="M207.136,236.607a3.518,3.518,0,0,1,2.134,4.493l-1.2,3.384a3.524,3.524,0,0,1-4.5,2.135h0a3.52,3.52,0,0,1-2.131-4.495l1.206-3.387a3.516,3.516,0,0,1,4.493-2.131Z" transform="translate(-174.88 -225.827)" fill="#5cb130" opacity="0.8" style="mix-blend-mode: multiply;isolation: isolate"/>
          <g id="Group_65" data-name="Group 65" transform="translate(0 0)">
            <g id="Group_64" data-name="Group 64">
              <path id="Path_728" data-name="Path 728" d="M186.312,230.8c-.735,1.574-.312,4.011-.523,5.49a7.334,7.334,0,0,1-1.347,3.487c-1.834,2.465-1.12,7.084,2.893,6.6,1.672-.2,2.532-1.908,3.981-2.6,2.388-1.146,4.489.928,6.538,1.847,2.752,1.232,5.663-.076,8.528-.111a7.589,7.589,0,0,1,3.674.824c1.592.82,4.851,2.645,5.649-.1.693-2.394-2.174-4.747-4-5.632a13.513,13.513,0,0,0-8.056-.968c-3.363.579-7.756,1.225-9.851-1.825-1.305-1.9-.385-4.651-1.807-6.482C190.679,229.648,187.637,227.969,186.312,230.8Z" transform="translate(-183.485 -229.28)" fill="#67c1a6"/>
            </g>
            <path id="Path_731" data-name="Path 731" d="M190.43,231.342a4.957,4.957,0,0,0-3.72-2.051,4.7,4.7,0,0,1,2.327,2.863c.65,1.887.639,3.91,1.029,5.858.328,1.633.63,3.5-.183,5.053a6.3,6.3,0,0,1-.748,1.1,3.924,3.924,0,0,1,.618-.377,3.391,3.391,0,0,1,2.438-.195.271.271,0,0,1-.012-.031,1.158,1.158,0,0,1,.717-1.568c1.832-.572,2.787.744,4.447,1.252,3.151.967,5.8-.772,8.9-.725,1.749.028,4.323.324,5.623,1.659a7.718,7.718,0,0,1,1.666,3.095,2.082,2.082,0,0,0,.606-1.022c.693-2.394-2.174-4.747-4-5.632a13.513,13.513,0,0,0-8.056-.968c-3.363.579-7.756,1.225-9.851-1.825C190.932,235.927,191.852,233.172,190.43,231.342Z" transform="translate(-181.921 -229.278)" fill="#91d584"/>
          </g>
        </g>
        <g id="Group_69" data-name="Group 69" transform="translate(17.602 45.487)">
          <path id="Path_732" data-name="Path 732" d="M215.252,218.11a3.516,3.516,0,0,1,.607,4.936l-2.208,2.832a3.52,3.52,0,0,1-4.942.609h0a3.516,3.516,0,0,1-.606-4.936l2.211-2.835a3.519,3.519,0,0,1,4.937-.606Z" transform="translate(-183.539 -199.157)" fill="#5cb130" opacity="0.8" style="mix-blend-mode: multiply;isolation: isolate"/>
          <g id="Group_68" data-name="Group 68" transform="translate(0 0)">
            <g id="Group_67" data-name="Group 67">
              <path id="Path_733" data-name="Path 733" d="M198.017,206c-1.194,1.264-1.559,3.708-2.224,5.046a7.349,7.349,0,0,1-2.377,2.884c-2.518,1.761-3.3,6.373.664,7.18,1.648.334,3-1.014,4.594-1.213,2.628-.333,3.969,2.3,5.625,3.816,2.223,2.037,5.4,1.714,8.128,2.582a7.573,7.573,0,0,1,3.225,1.941c1.253,1.279,3.772,4.037,5.39,1.69,1.415-2.052-.566-5.194-2.017-6.606a13.547,13.547,0,0,0-7.338-3.46c-3.377-.508-7.75-1.28-8.776-4.835-.641-2.213,1.1-4.535.33-6.719C202.528,206.276,200.17,203.722,198.017,206Z" transform="translate(-191.317 -205.103)" fill="#67c1a6"/>
            </g>
            <path id="Path_736" data-name="Path 736" d="M201.068,208.275a4.963,4.963,0,0,0-2.885-3.121,4.692,4.692,0,0,1,1.305,3.452c.022,1.994-.627,3.908-.87,5.883-.2,1.653-.5,3.519-1.766,4.735a6.15,6.15,0,0,1-1.056.806,4,4,0,0,1,.7-.165,3.41,3.41,0,0,1,2.379.587c0-.012,0-.024,0-.034a1.152,1.152,0,0,1,1.17-1.262c1.921.036,2.412,1.581,3.827,2.588,2.686,1.91,5.751,1.1,8.678,2.119,1.651.581,4,1.671,4.814,3.347a7.74,7.74,0,0,1,.606,3.463,2.078,2.078,0,0,0,.9-.778c1.415-2.052-.566-5.194-2.017-6.606a13.547,13.547,0,0,0-7.338-3.46c-3.377-.508-7.75-1.28-8.776-4.835C200.1,212.782,201.841,210.46,201.068,208.275Z" transform="translate(-189.145 -205.079)" fill="#91d584"/>
          </g>
        </g>
        <g id="Group_72" data-name="Group 72" transform="translate(40.356 13.463)">
          <path id="Path_737" data-name="Path 737" d="M225.764,211.809a3.517,3.517,0,0,1-1.538,4.731l-3.2,1.63a3.522,3.522,0,0,1-4.735-1.537h0a3.521,3.521,0,0,1,1.538-4.731l3.2-1.632a3.518,3.518,0,0,1,4.729,1.538Z" transform="translate(-199.292 -184.629)" fill="#5cb130" opacity="0.8" style="mix-blend-mode: multiply;isolation: isolate"/>
          <g id="Group_71" data-name="Group 71" transform="translate(0 0)">
            <g id="Group_70" data-name="Group 70">
              <path id="Path_738" data-name="Path 738" d="M216.163,193.113c-1.616.64-2.983,2.7-4.15,3.629a7.337,7.337,0,0,1-3.375,1.61c-3.026.532-5.681,4.38-2.434,6.786,1.351,1,3.15.352,4.678.845,2.52.809,2.624,3.76,3.482,5.836,1.152,2.786,4.165,3.836,6.272,5.776a7.614,7.614,0,0,1,2.1,3.124c.592,1.688,1.709,5.254,4.168,3.809,2.152-1.261,1.682-4.945.967-6.838a13.508,13.508,0,0,0-5.188-6.237c-2.844-1.89-6.477-4.438-5.906-8.094.355-2.276,2.918-3.642,3.139-5.952C220.133,195.274,219.075,191.962,216.163,193.113Z" transform="translate(-204.718 -192.877)" fill="#67c1a6"/>
            </g>
            <path id="Path_741" data-name="Path 741" d="M218.138,197.249a4.954,4.954,0,0,0-1.292-4.046,4.711,4.711,0,0,1-.278,3.681c-.824,1.815-2.223,3.277-3.277,4.963-.884,1.412-1.944,2.974-3.6,3.543a6.059,6.059,0,0,1-1.3.285,3.838,3.838,0,0,1,.707.15A3.4,3.4,0,0,1,211,207.36a.139.139,0,0,1,.015-.03,1.154,1.154,0,0,1,1.595-.65c1.725.848,1.518,2.455,2.373,3.966,1.627,2.867,4.749,3.424,6.966,5.589,1.253,1.224,2.919,3.206,2.951,5.068a7.779,7.779,0,0,1-.916,3.4,2.089,2.089,0,0,0,1.139-.33c2.152-1.261,1.682-4.945.967-6.838A13.508,13.508,0,0,0,220.9,211.3c-2.844-1.89-6.477-4.438-5.905-8.094C215.354,200.925,217.917,199.558,218.138,197.249Z" transform="translate(-202.937 -192.719)" fill="#91d584"/>
          </g>
        </g>
        <g id="Group_75" data-name="Group 75" transform="translate(85.814 0)">
          <path id="Path_742" data-name="Path 742" d="M247.543,203.044a3.516,3.516,0,0,1-2.983,3.98l-3.556.511a3.519,3.519,0,0,1-3.983-2.985h0A3.518,3.518,0,0,1,240,200.572l3.559-.511a3.516,3.516,0,0,1,3.98,2.983Z" transform="translate(-228.003 -172.685)" fill="#5cb130" opacity="0.8" style="mix-blend-mode: multiply;isolation: isolate"/>
          <g id="Group_74" data-name="Group 74" transform="translate(0)">
            <g id="Group_73" data-name="Group 73">
              <path id="Path_743" data-name="Path 743" d="M244.954,181.618c-1.736.083-3.693,1.593-5.1,2.1a7.35,7.35,0,0,1-3.712.432c-3.034-.475-6.789,2.309-4.5,5.637.958,1.384,2.87,1.35,4.158,2.311,2.125,1.578,1.268,4.406,1.411,6.646.19,3.01,2.7,4.976,4.069,7.493a7.563,7.563,0,0,1,.983,3.635c.018,1.791-.077,5.527,2.716,4.954,2.443-.5,3.19-4.137,3.124-6.161a13.521,13.521,0,0,0-2.9-7.578c-2.082-2.707-4.7-6.293-2.979-9.569,1.072-2.039,3.939-2.505,4.894-4.618C248.012,184.945,248.081,181.469,244.954,181.618Z" transform="translate(-230.936 -181.613)" fill="#67c1a6"/>
            </g>
            <path id="Path_746" data-name="Path 746" d="M245.738,186.558a4.944,4.944,0,0,0,.083-4.247,4.693,4.693,0,0,1-1.451,3.393c-1.366,1.454-3.161,2.385-4.7,3.64-1.293,1.051-2.8,2.189-4.554,2.19a6.2,6.2,0,0,1-1.322-.15,4.063,4.063,0,0,1,.624.371,3.387,3.387,0,0,1,1.307,2.068c.009-.007.015-.019.022-.025a1.157,1.157,0,0,1,1.721-.1c1.36,1.357.641,2.812.965,4.519.613,3.239,3.387,4.775,4.789,7.54.79,1.562,1.725,3.975,1.152,5.75a7.793,7.793,0,0,1-1.962,2.916,2.075,2.075,0,0,0,1.183.058c2.443-.5,3.19-4.137,3.124-6.161a13.521,13.521,0,0,0-2.9-7.577c-2.082-2.707-4.7-6.293-2.979-9.569C241.916,189.137,244.783,188.671,245.738,186.558Z" transform="translate(-229.551 -181.274)" fill="#91d584"/>
          </g>
        </g>
      </g>
    </g>
    <g id="Group_27" data-name="Group 27" transform="translate(885.913 323.798)">
      <g id="Group_26" data-name="Group 26" transform="translate(0 0)">
        <g id="Group_23" data-name="Group 23">
          <g id="Group_16" data-name="Group 16">
            <g id="Group_152" data-name="Group 152">
              <path id="Path_753" data-name="Path 753" d="M-80.87-207.981c17.5,7.3,34.713,19.008,45.685,35.692,10.932,16.683,15.664,38.384,11.421,57.882C-28.005-94.951-41.221-77.7-56.518-65.092c-15.337,12.6-32.755,20.558-49.642,21.456-16.887.938-33.244-5.221-51.07-9.178-17.785-3.957-37-5.792-49.846-15.827-12.849-9.994-19.335-28.227-19.131-45.685.245-17.458,7.1-34.1,14.562-50.54,7.424-16.439,15.46-32.673,28.472-42.014,13.053-9.341,31.164-11.788,49.071-11.544C-116.154-218.22-98.369-215.283-80.87-207.981Z" transform="translate(226.211 218.44)" fill="url(#linear-gradient)"/>
              <path id="Path_747" data-name="Path 747" d="M-119.149-210.736c12.89,5.378,25.57,14,33.653,26.291,8.053,12.289,11.538,28.274,8.413,42.637-3.125,14.333-12.86,27.043-24.128,36.327-11.3,9.285-24.128,15.144-36.568,15.8-12.44.691-24.489-3.846-37.619-6.761-13.1-2.915-27.253-4.267-36.718-11.658-9.465-7.362-14.242-20.793-14.092-33.653.18-12.86,5.228-25.12,10.727-37.229,5.469-12.109,11.388-24.068,20.973-30.949,9.615-6.881,22.956-8.684,36.147-8.5A103.428,103.428,0,0,1-119.149-210.736Z" transform="translate(253.075 241.472)" stroke="#68c89a" stroke-width="11" fill="url(#linear-gradient)"/>
              <path id="Path_748" data-name="Path 748" d="M-204.732-216.894a14.825,14.825,0,0,1,6.752,5.275,11.539,11.539,0,0,1,1.688,8.554,13.642,13.642,0,0,1-4.841,7.288,12.972,12.972,0,0,1-7.336,3.171c-2.5.139-4.913-.772-7.547-1.356s-5.468-.856-7.367-2.339a8.506,8.506,0,0,1-2.827-6.752,19.07,19.07,0,0,1,2.152-7.469c1.1-2.429,2.285-4.829,4.208-6.209s4.606-1.742,7.252-1.706A20.75,20.75,0,0,1-204.732-216.894Z" transform="translate(313.134 292.966)" stroke="#68c89a" stroke-width="11" fill="url(#linear-gradient)"/>
              <path id="Path_749" data-name="Path 749" d="M6226.711,474.693c-9.344,29.132-13.192-52.767,39.575-100.586,26.383-10.443,51.118-7.7,70.905,0s-46.171-9.894-68.157,21.986S6236.055,445.562,6226.711,474.693Z" transform="translate(-6186.41 -346.329)" fill="#c6ee78"/>
              <path id="Path_750" data-name="Path 750" d="M6336.54,546.989s130.817,1.491,117.626-68.315,13.741-6.046,13.741,3.3,1.1,89.593-84.646,85.2S6336.54,546.989,6336.54,546.989Z" transform="translate(-6297.204 -429.5)" fill="#5bb98e"/>
              <path id="Path_752" data-name="Path 752" d="M6336.54,546.989s130.817,1.491,117.626-68.315,13.741-6.046,13.741,3.3,1.1,89.593-84.646,85.2S6336.54,546.989,6336.54,546.989Z" transform="translate(-6278.866 -436.266)" fill="#bbe88c" opacity="0.7"/>
            </g>
          </g>
          <g id="Group_153" data-name="Group 153" transform="matrix(0.875, -0.485, 0.485, 0.875, 54.092, 84.033)">
            <ellipse id="Ellipse_5" data-name="Ellipse 5" cx="4.481" cy="5.038" rx="4.481" ry="5.038" transform="translate(1.37 2.588)" fill="#daffbb"/>
            <ellipse id="Ellipse_7" data-name="Ellipse 7" cx="4.481" cy="5.038" rx="4.481" ry="5.038" fill="#309e7d"/>
            <ellipse id="Ellipse_6" data-name="Ellipse 6" cx="3.954" cy="5.301" rx="3.954" ry="5.301" transform="translate(1.449 1.038)" fill="#242f3d" opacity="0.8"/>
          </g>
          <g id="Group_154" data-name="Group 154" transform="translate(89.739 60.786) rotate(-24)">
            <ellipse id="Ellipse_5-2" data-name="Ellipse 5" cx="4.987" cy="5.607" rx="4.987" ry="5.607" transform="translate(1.033 2.538)" fill="#daffbb"/>
            <ellipse id="Ellipse_7-2" data-name="Ellipse 7" cx="4.987" cy="5.607" rx="4.987" ry="5.607" transform="translate(0 0)" fill="#147d5d"/>
            <ellipse id="Ellipse_6-2" data-name="Ellipse 6" cx="4.4" cy="5.9" rx="4.4" ry="5.9" transform="translate(1.145 0.768)" fill="#242f3d" opacity="0.8"/>
          </g>
        </g>
        <g id="Group_24" data-name="Group 24" transform="translate(120.992 40.933)">
          <path id="Path_652" data-name="Path 652" d="M313.517,92.7c-1.706-.415-2.925,1.06-3.412,2.522a1.79,1.79,0,0,0,2.071,2.287l.212-.044a2.554,2.554,0,0,0,2.025-2.275,2.529,2.529,0,0,0,.144-.431A1.733,1.733,0,0,0,313.517,92.7Z" transform="translate(-266.472 -23.841)" fill="#b5eea1" opacity="0.7"/>
          <path id="Path_653" data-name="Path 653" d="M314.827,92.1c-.772,0-1.215,1.383-.319,1.383C315.276,93.48,315.719,92.1,314.827,92.1Z" transform="translate(-262.494 -24.373)" fill="#b5eea1" opacity="0.7"/>
          <path id="Path_654" data-name="Path 654" d="M315.094,97.559a1.133,1.133,0,0,0-.4-.511,1.887,1.887,0,0,0-1.99-.144l-.006,0a.469.469,0,0,0-.048.018c-.034.016-.058.038-.092.056a2.285,2.285,0,0,0-.744.607c-.018.022-.038.054-.056.08l-.01.018a1.637,1.637,0,0,0-.136.21,2.143,2.143,0,0,0-.319,1.026c-.006.048-.006.1-.008.15l0,.06a1.249,1.249,0,0,0,.557,1.139c.03.018.058.026.082.042a1.54,1.54,0,0,0,.389.194,1.746,1.746,0,0,0,1.566-.082,2.744,2.744,0,0,0,.936-.806A1.814,1.814,0,0,0,315.094,97.559Z" transform="translate(-265.207 -19.804)" fill="#b5eea1" opacity="0.7"/>
          <path id="Path_655" data-name="Path 655" d="M292.661,114.05a2.821,2.821,0,0,0,.275-3.075c-1.451-2.263-4.939-.006-4.733,2.229l0,.056a2.011,2.011,0,0,0,1.912,2.019c-.016.014-.028.028-.044.044l.054.006a2.213,2.213,0,0,0,1.169-.148A2.381,2.381,0,0,0,292.661,114.05Z" transform="translate(-288.195 -6.515)" fill="#b5eea1" opacity="0.64"/>
          <path id="Path_656" data-name="Path 656" d="M294.566,103.846c-2.969,0-4.668,5.318-1.239,5.318C296.3,109.164,297.993,103.846,294.566,103.846Z" transform="translate(-284.977 -12.677)" fill="#b5eea1" opacity="0.64"/>
          <path id="Path_657" data-name="Path 657" d="M293.845,107.552c-.708,0-1.109,1.261-.3,1.261C294.254,108.813,294.655,107.552,293.845,107.552Z" transform="translate(-283.314 -8.987)" fill="#b5eea1" opacity="0.7"/>
          <path id="Path_658" data-name="Path 658" d="M293.15,110.412c-.954,0-1.5,1.706-.4,1.706C293.705,112.118,294.248,110.412,293.15,110.412Z" transform="translate(-284.264 -6.14)" fill="#b5eea1" opacity="0.7"/>
          <path id="Path_659" data-name="Path 659" d="M311.157,61.367c.066-1.748-1.515-4.015-3.47-2.921a5.119,5.119,0,0,0-2.217,5.494,3.077,3.077,0,0,0,1.766,2.039c1.2.625,3.021-.519,3.261-1.758a3.624,3.624,0,0,0,.048-.441A6.747,6.747,0,0,0,311.157,61.367Z" transform="translate(-271.112 -58.159)" fill="#b5eea1" opacity="0.7"/>
          <path id="Path_660" data-name="Path 660" d="M310.292,59.981c-.758,0-1.2,1.361-.317,1.361C310.735,61.342,311.166,59.981,310.292,59.981Z" transform="translate(-266.996 -56.346)" fill="#b5eea1" opacity="0.7"/>
          <path id="Path_661" data-name="Path 661" d="M309.771,65.6a1.214,1.214,0,0,0-.156-.333l0-.006a1.124,1.124,0,0,0-.088-.453,1.258,1.258,0,0,0-1.471-.854,2.285,2.285,0,0,0-1.89,2.229,1.694,1.694,0,0,0,1.672,1.65C308.909,67.768,310.112,66.8,309.771,65.6Z" transform="translate(-270.305 -52.415)" fill="#b5eea1" opacity="0.7"/>
          <path id="Path_662" data-name="Path 662" d="M310.6,63.076c-.8,0-1.261,1.435-.335,1.435C311.065,64.511,311.526,63.076,310.6,63.076Z" transform="translate(-266.732 -53.265)" fill="#b5eea1" opacity="0.7"/>
        </g>
        <g id="Group_25" data-name="Group 25" transform="translate(32.115 106.13)">
          <path id="Path_663" data-name="Path 663" d="M249.69,94.6c-1.1-.976-2.8-.054-3.514.93a3.23,3.23,0,0,0-.557,1.117c-.056.154-.114.305-.158.461a2.066,2.066,0,0,0,.267,1.732,2.284,2.284,0,0,0,3.768-.589,5.2,5.2,0,0,0,.457-.674A2.329,2.329,0,0,0,249.69,94.6Z" transform="translate(-241.938 -87.494)" fill="#caf5b3" opacity="0.64"/>
          <path id="Path_664" data-name="Path 664" d="M249.562,94.286c-1.2,0-1.878,2.141-.5,2.141C250.261,96.427,250.941,94.286,249.562,94.286Z" transform="translate(-239.035 -87.391)" fill="#b1eba2"/>
          <path id="Path_665" data-name="Path 665" d="M246.838,90.831A3.114,3.114,0,0,0,244,95.269a1.4,1.4,0,0,0,.369.447,1.434,1.434,0,0,0,1.646.926c1.4-.216,2.147-1.541,2.566-2.756C249.031,92.555,248.479,90.831,246.838,90.831Z" transform="translate(-243.657 -90.831)" fill="#caf5b3" opacity="0.64"/>
        </g>
      </g>
    </g>
    <g id="Group_156" data-name="Group 156" transform="translate(976.026 418.947)">
      <ellipse id="Ellipse_8" data-name="Ellipse 8" cx="10.274" cy="9.703" rx="10.274" ry="9.703" transform="translate(2.283 1.142)" fill="#99e596"/>
      <ellipse id="Ellipse_12" data-name="Ellipse 12" cx="10.274" cy="9.132" rx="10.274" ry="9.132" transform="translate(0 0)" fill="#198060"/>
      <ellipse id="Ellipse_11" data-name="Ellipse 11" cx="10.274" cy="9.703" rx="10.274" ry="9.703" transform="translate(1.142 0)" fill="#1d473b"/>
      <path id="Intersection_1" data-name="Intersection 1" d="M0,7.438C1.091,3.182,5.466,0,10.7,0a12.344,12.344,0,0,1,4.5.834C14.1,5.09,9.726,8.272,4.494,8.272A12.345,12.345,0,0,1,0,7.438Z" transform="translate(6.916 10.932)" fill="url(#linear-gradient-4)"/>
    </g>
    <g id="Group_158" data-name="Group 158" transform="translate(942.812 452.087)">
      <g id="Group_157" data-name="Group 157" transform="translate(0)">
        <g transform="matrix(1, 0, 0, 1, -153.37, -216.39)" filter="url(#Path_755)">
          <path id="Path_755-2" data-name="Path 755" d="M217.987,100.194a6.367,6.367,0,0,0-2.6-4.182,6.35,6.35,0,0,0-10.914-6.29,6.354,6.354,0,0,0-6.2,11.016,6.3,6.3,0,0,0-.416,3.447,6.373,6.373,0,0,0,7.295,5.275,6.308,6.308,0,0,0,4.032-2.425,6.252,6.252,0,0,0,3.523.447A6.365,6.365,0,0,0,217.987,100.194Z" transform="translate(-42.23 129.17)" fill="#b8eba6"/>
        </g>
      </g>
    </g>
  </g>
</svg>
