<svg xmlns="http://www.w3.org/2000/svg" width="111.374" height="145.741" viewBox="0 0 111.374 145.741">
  <g id="illustration" transform="translate(-93.896 -101.786)">
    <path id="Path_24675" data-name="Path 24675" d="M195.09,241.967l-1.785-1.6s-13.722,9.208-19.273,12.846-7.64,3.5-10.162,3.135-11.772-1.875-11.772-1.875l-.992,3.239s9.9,5.418,15.288,6.969,24.437-6.2,24.437-6.2Z" transform="translate(-36.272 -87.863)" fill="#f39626" fill-rule="evenodd"/>
    <path id="Path_24676" data-name="Path 24676" d="M220.483,241.967l-1.785-1.6s-1.837,1.233-4.438,2.973c-1.084,4.06-2.773,10.154-3.433,11.284-1.005,1.723-5.264,2.68-8.806,4.068s-10.865,4.595-10.865,4.595,1.565.641,3.689,1.536c7.393-.654,21.378-6.347,21.378-6.347Z" transform="translate(-61.664 -87.863)" fill="#f08419" fill-rule="evenodd"/>
    <g id="Group_6662" data-name="Group 6662" transform="translate(155.183 149.749)">
      <path id="Path_24677" data-name="Path 24677" d="M270.959,232.849l33.255,2.3a4.77,4.77,0,0,1,4.416,5.073l-4.52,65.237a4.771,4.771,0,0,1-5.074,4.416l-33.254-2.3a4.771,4.771,0,0,1-4.417-5.074l4.52-65.237A4.77,4.77,0,0,1,270.959,232.849Z" transform="translate(-261.353 -232.838)" fill="#4f3a38" fill-rule="evenodd"/>
      <path id="Path_24678" data-name="Path 24678" d="M361.821,239.145h0a4.77,4.77,0,0,1,4.416,5.073l-4.52,65.237a4.77,4.77,0,0,1-5.074,4.416h0a4.77,4.77,0,0,1-4.416-5.074c.539-7.78-.109-18.389,4.469-64.505l.051-.731A4.771,4.771,0,0,1,361.821,239.145Z" transform="translate(-318.961 -236.829)" fill="#3f2b28" fill-rule="evenodd"/>
    </g>
    <path id="Path_24679" data-name="Path 24679" d="M257.425,457.289l-1.612,2.12s.21,3.68.655,9.87h35.891c-.1-8.71-.285-14.5-.585-15.173C290.363,450.954,260.744,449.432,257.425,457.289Z" transform="translate(-102.657 -221.752)" fill="#361f1c" fill-rule="evenodd"/>
    <path id="Path_24680" data-name="Path 24680" d="M253,450.407l1.03,5.624s.21,3.679.655,9.87h1.226c2.118-1.995,5.474-3.841,10.922-3.566a18.725,18.725,0,0,1,10.324,3.566h13.419c-.1-8.71-.285-14.5-.585-15.173C288.579,447.576,256.319,442.549,253,450.407Z" transform="translate(-100.874 -218.373)" fill="#2a0d09" fill-rule="evenodd"/>
    <path id="Path_24681" data-name="Path 24681" d="M253.767,442.137l-2.475,3.516a37.857,37.857,0,0,0,.821,4.727c.31.615,4.789,3.168,16.229,3.492s19.3-1.876,21.845-4.074c0,0,1.275-1.486.482-4.462S253.767,442.137,253.767,442.137Z" transform="translate(-99.791 -215.787)" fill="#fff" fill-rule="evenodd"/>
    <path id="Path_24682" data-name="Path 24682" d="M292.171,240.053l-1.318-1.13-13.237-4.978c-1.327.207-7.8,1.7-11.658,2.73-4.11,9.491-11.935,35.943-6.909,45.094,1.14,2.074-1.713,33.744,2.673,35.093,3.476,1.07,10.869,2.66,16.921-.041,1.582-.706.674-33.932,1.979-35.312C291.584,269.926,303.035,253.786,292.171,240.053Z" transform="translate(-103.676 -83.791)" fill="#fff" fill-rule="evenodd"/>
    <path id="Path_24683" data-name="Path 24683" d="M264.119,361.912c.388,2.214.974,3.7,1.852,3.966,3.476,1.07,10.869,2.66,16.921-.041,1.582-.706.674-33.932,1.979-35.312,4.7-4.971,9.5-10.783,12.578-16.882l-12.016-2.388H265.209l1.837,8.614c.257-1.114,2.4-5.742,4.028-6.3a6.188,6.188,0,0,1,2.443-.343h4.521C278.595,313.228,280.794,359.578,264.119,361.912Z" transform="translate(-107.924 -132.807)" fill="#eae2c4" fill-rule="evenodd"/>
    <path id="Path_24684" data-name="Path 24684" d="M303.112,237.3l-8.914-3.352c-1.215.189-6.738,1.458-10.625,2.459a8.686,8.686,0,0,0,5.191,5.7c5.1,1.928,12.016-.613,13.935-4.1C302.838,237.749,302.976,237.516,303.112,237.3Z" transform="translate(-120.258 -83.791)" fill="#eae2c4" fill-rule="evenodd"/>
    <path id="Path_24685" data-name="Path 24685" d="M264.807,236.873c2.967.127,4.906.223,6.165.3.233-.431.46-.814.68-1.139a38.86,38.86,0,0,1,6.2,1.24c.669.186,1.195.365,1.882.52a38.2,38.2,0,0,1,8.826,3.377c.145.1,7.233,4.9,2.625,21.744-1.393,4.506-3.513,9.035-4.227,12.916-1.963,10.678,3.859,27.213,3.2,37.763-.185,2.973-4.665,4.565-8.286,5.668-7.883,2.4-34.521,3.126-32.649-8.307,2.767-16.909,3.557-23.718,2.534-37-1.07-13.9-4.814-33.206,8.26-36.665C261.065,237.013,263.582,237.025,264.807,236.873Z" transform="translate(-98.418 -85.106)" fill="#ed740c" fill-rule="evenodd"/>
    <path id="Path_24686" data-name="Path 24686" d="M338.726,246.2c1,.427,2.018.906,2.994,1.428.145.1,7.233,4.9,2.625,21.744-1.393,4.508-3.513,9.034-4.227,12.916-1.963,10.678,3.859,27.213,3.2,37.763-.181,2.9-4.438,4.483-8.006,5.583.807-7.87.676-18.159-1.343-31.431-3.858-25.356,4.789-47.769,4.789-47.769Z" transform="translate(-151.58 -91.559)" fill="#de6502" fill-rule="evenodd"/>
    <path id="Path_24687" data-name="Path 24687" d="M288.967,236.929c2.967.135,4.906.238,6.165.321.234-.459.46-.867.68-1.213a36.719,36.719,0,0,1,6.2,1.321c.669.2,1.195.389,1.882.554l.287.071c-1.543,4.965-10.965,6.515-13.72,4.484a7.3,7.3,0,0,1-3.226-5.407C287.776,236.93,288.377,237.007,288.967,236.929Z" transform="translate(-122.578 -85.106)" fill="#fff" fill-rule="evenodd"/>
    <path id="Path_24688" data-name="Path 24688" d="M304.243,199.8l-.154,3.615v8.53a3.443,3.443,0,0,0,1.31,2.619c-3.159,4.415-12.391,4.581-13.658-.585a4.378,4.378,0,0,0,1.863-1.026c1.236-1.349.91-7.815-.327-9.388S304.243,199.8,304.243,199.8Z" transform="translate(-125.437 -62.14)" fill="#e27e67" fill-rule="evenodd"/>
    <path id="Path_24689" data-name="Path 24689" d="M253.1,281.113c.059-.511-1.331-28.478,9.188-43.7-.522-.789-5.9-.187-6.316.492-4.618,7.5-7.375,22.244-6.007,35.767C250.283,276.794,250.519,276.866,253.1,281.113Z" transform="translate(-98.729 -85.753)" fill="#3f2b28" fill-rule="evenodd"/>
    <path id="Path_24690" data-name="Path 24690" d="M262.344,148.467l5.033-.436-.206,11.654-2.38.609Z" transform="translate(-106.798 -29.32)" fill="#361f1c" fill-rule="evenodd"/>
    <path id="Path_24691" data-name="Path 24691" d="M265.059,177.787a4.115,4.115,0,1,1-3.943,4.279A4.114,4.114,0,0,1,265.059,177.787Z" transform="translate(-106.017 -48.183)" fill="#e27e67" fill-rule="evenodd"/>
    <path id="Path_24692" data-name="Path 24692" d="M342.013,174.646a4.115,4.115,0,1,1-3.943,4.28A4.115,4.115,0,0,1,342.013,174.646Z" transform="translate(-154.807 -46.192)" fill="#e27e67" fill-rule="evenodd"/>
    <path id="Path_24693" data-name="Path 24693" d="M282.066,119.5h0a14.136,14.136,0,0,1,14.657,13.507l.522,12.8a14.134,14.134,0,0,1-13.507,14.657h0a14.134,14.134,0,0,1-14.657-13.507l-.523-12.8A14.136,14.136,0,0,1,282.066,119.5Z" transform="translate(-110.73 -11.224)" fill="#f5ac83" fill-rule="evenodd"/>
    <path id="Path_24694" data-name="Path 24694" d="M301.641,122.256a14.14,14.14,0,0,1,8.855,12.505l.523,12.8a14.135,14.135,0,0,1-13.508,14.656h0a13.974,13.974,0,0,1-5.093-.738c13.779-.457,14.923-9.883,14.6-17.72s-2.948-8.627-5.858-8.509l-10.681.437s-2.371-10.187,8.717-12.915C300.063,122.559,300.874,122.387,301.641,122.256Z" transform="translate(-124.504 -12.978)" fill="#ee9073" fill-rule="evenodd"/>
    <g id="Group_6663" data-name="Group 6663" transform="translate(160.071 135.052)">
      <path id="Path_24695" data-name="Path 24695" d="M276.664,196.166a2.039,2.039,0,1,1-1.955,2.121A2.039,2.039,0,0,1,276.664,196.166Z" transform="translate(-274.707 -194.889)" fill="#e27e67" fill-rule="evenodd"/>
      <path id="Path_24696" data-name="Path 24696" d="M318.626,192.681a2.039,2.039,0,1,1-1.955,2.12A2.038,2.038,0,0,1,318.626,192.681Z" transform="translate(-301.312 -192.679)" fill="#e27e67" fill-rule="evenodd"/>
    </g>
    <path id="Path_24697" data-name="Path 24697" d="M335.567,145.268a3.3,3.3,0,0,0,1.854,2.906s-.455,1.666.508,2.012c0,0-.081-1.989,2.485-1.458,0,0,6.729-11.989-1.969-15.373.079.284-4.447-.272-5.447,4.178C335.678,137.424,335.422,141.709,335.567,145.268Z" transform="translate(-151.594 -20.015)" fill="#462d29" fill-rule="evenodd"/>
    <path id="Path_24698" data-name="Path 24698" d="M339.874,158.848a3.3,3.3,0,0,0,1.854,2.906s-.455,1.666.508,2.012c0,0-.081-1.989,2.485-1.458a21.988,21.988,0,0,0,2.427-7.534c-.877,1.66-2.345,3.183-4.311,2.92a5.4,5.4,0,0,1-3.046-1.5C339.828,157.074,339.839,157.982,339.874,158.848Z" transform="translate(-155.901 -33.594)" fill="#361f1c" fill-rule="evenodd"/>
    <path id="Path_24699" data-name="Path 24699" d="M318.075,140.717l-1.193-.262s.076-3.254-3.643-2.9c0,0-4.455-2.541-7.712.418,0,0,1.915-7.676,2.074-7.9s5.973,4.456,5.973,4.456,2.7,1.614,2.8,1.778A9.741,9.741,0,0,1,318.075,140.717Z" transform="translate(-134.177 -17.931)" fill="#2a0d09" fill-rule="evenodd"/>
    <path id="Path_24700" data-name="Path 24700" d="M286.576,127.965c-.6,4.335-5.82,3.257-4.866-2.827.31-1.977.928-9.065-3.043-5.514-4.562-9.253-7.138.534-9.142,3.234-10.956,14.772-26.725-2.015-13.475-14.844a23.381,23.381,0,0,1,14.54-6.185c9.27-.569,16.595,4.556,15.88,14.183Z" transform="translate(-99.605 0)" fill="#462d29" fill-rule="evenodd"/>
    <path id="Path_24701" data-name="Path 24701" d="M287.081,152.174c-.6,4.335-5.82,3.257-4.866-2.827a14.621,14.621,0,0,0-.043-5.343h0s1.271,3.821,4.874,4.3l.035,3.866Zm-11.25-12.2-.013,0h.013v0Zm-.668-.007c-2.233.43-3.808,5.311-5.133,7.1-7.2,9.714-16.489,5.781-18.236-1.7.138.518,1.3,4.047,7.351,4.271C265.383,149.87,270.346,140.358,275.163,139.97Z" transform="translate(-100.109 -24.209)" fill="#361f1c" fill-rule="evenodd"/>
    <path id="Path_24702" data-name="Path 24702" d="M254.8,114.041c.817,1.266,2.308,2.258,4.923,2.46,6.62.512,16.191-2.973,21.776-7.469a12.026,12.026,0,0,1,1.625,1.346c-5.034,4.127-14.02,10.492-23.788,12.676a11.04,11.04,0,0,1-8.191-.918A14.559,14.559,0,0,1,254.8,114.041Z" transform="translate(-99.697 -4.594)" fill="#5f3c33" fill-rule="evenodd"/>
    <g id="Group_6664" data-name="Group 6664" transform="translate(180.287 218.39)">
      <path id="Path_24703" data-name="Path 24703" d="M337.713,420.387l-1.5,1.955c-15.047,7.531,1.4,14.105,3.925,2.309C341.021,422.048,337.713,420.387,337.713,420.387Z" transform="translate(-329.945 -420.387)" fill="#f5ac83" fill-rule="evenodd"/>
      <path id="Path_24704" data-name="Path 24704" d="M343.05,423.723l-.99-.094s-3.163-.434-3.722.649.043,3.229.043,3.229Z" transform="translate(-335.115 -422.387)" fill="#f5ac83" fill-rule="evenodd"/>
    </g>
    <path id="Path_24705" data-name="Path 24705" d="M276.5,176.346h0a1.438,1.438,0,0,1,1.5,1.367l.085,1.867a1.438,1.438,0,0,1-1.366,1.5h0a1.437,1.437,0,0,1-1.5-1.366l-.085-1.868A1.438,1.438,0,0,1,276.5,176.346Z" transform="translate(-114.908 -47.271)" fill="#1f0000" fill-rule="evenodd"/>
    <path id="Path_24706" data-name="Path 24706" d="M319.177,174.635h0a1.438,1.438,0,0,1,1.5,1.366l.085,1.867a1.437,1.437,0,0,1-1.366,1.5h0A1.438,1.438,0,0,1,317.9,178l-.086-1.867A1.439,1.439,0,0,1,319.177,174.635Z" transform="translate(-141.964 -46.187)" fill="#1f0000" fill-rule="evenodd"/>
    <path id="Path_24707" data-name="Path 24707" d="M314.738,166.458l3.956.868a.782.782,0,0,1,.594.927h0a.78.78,0,0,1-.928.594l-3.956-.868a.781.781,0,0,1-.593-.928h0A.78.78,0,0,1,314.738,166.458Z" transform="translate(-139.417 -40.991)" fill="#1f0000" fill-rule="evenodd"/>
    <path id="Path_24708" data-name="Path 24708" d="M353.614,255.88c3.706,3.77,13.21,24.147,12.69,34.939-.478,9.924-12.543,28.588-14.55,31.5-.175.254-.709.227-.709.227s2.211-3.609-1.326-5.439c0,0-1.815.358-1.588-.162s8.143-17.506,9.638-23.292c1.307-5.058-6.21-13.24-8.875-20.466C346.577,266.906,348.491,257.271,353.614,255.88Z" transform="translate(-161.055 -97.698)" fill="#f39626" fill-rule="evenodd"/>
    <path id="Path_24709" data-name="Path 24709" d="M353.614,255.88a16.169,16.169,0,0,1,1.9,2.564c-1.8,4.047-3.92,9.434-3.515,11.52.684,3.523,7.289,18.72,5.866,23.2h0c.737-5.085-6.393-12.979-8.974-19.976-2.316-6.28-.4-15.914,4.721-17.305Zm11.249,41.558c-3.36,9.983-11.493,22.536-13.109,24.879-.175.254-.709.227-.709.227s1.479-2.694-1.57-4.89c0,0-1.571-.191-1.344-.711.025-.057.142-.311.332-.727,1.933.056,4.54.025,5.405-.5C355.294,314.866,364.736,297.668,364.862,297.438Z" transform="translate(-161.055 -97.698)" fill="#ed740c" fill-rule="evenodd"/>
    <path id="Path_24710" data-name="Path 24710" d="M330.675,286.56c.6.03,3.126-.878,3.144-1.342s-4.507-24.129,5.586-37.962c.1-3.472-7.551-5.3-7.868-4.931-9.251,10.771-5.907,31.942-2.727,40.814C329.057,283.825,329.962,286.523,330.675,286.56Z" transform="translate(-146.846 -89.074)" fill="#3f2b28" fill-rule="evenodd"/>
    <path id="Path_24711" data-name="Path 24711" d="M251.76,407.269a2.492,2.492,0,0,0,1.514-2.1c.093-1.56,0-6.364,3.844-9.917,0,0,1.073-.729,4.36-.766s16.108.255,18.14,1.269a5.6,5.6,0,0,1,3.251,4.5c.222,1.85,4.029,9.818,7.742,9.893,0,0,.165,2.76-.8,3.92s-20.395,7.1-37.517-.835C252.3,413.228,250.821,411.887,251.76,407.269Z" transform="translate(-99.89 -185.572)" fill="#f39626" fill-rule="evenodd"/>
    <path id="Path_24712" data-name="Path 24712" d="M334.459,183.475a.368.368,0,1,1-.7-.234c.006-.019,2.218-6.541,5.123-7.063a1.528,1.528,0,0,0-.468.922c-2.185,1.143-3.95,6.358-3.957,6.374Zm5.488.339a7.592,7.592,0,0,1-5.268,4.106.367.367,0,0,1-.13-.723,6.745,6.745,0,0,0,4.542-3.366,4.159,4.159,0,0,0,.515.011Q339.779,183.836,339.947,183.814Z" transform="translate(-152.065 -47.166)" fill="#e0cabb" fill-rule="evenodd"/>
    <path id="Path_24713" data-name="Path 24713" d="M269.363,189.636s5.968-1.336,8.591-1.61c1.887-.2,8.24.72,13.779,1.654.888.15,1.576.082,1.808,1.232.187.926,1.28,6.053,1.089,7.4a3.926,3.926,0,0,1-.411,1.263c-1.483,2.842-8.969,4.95-11.817,4.871-4.478-.123-13.466-4.526-13.359-14.163A.791.791,0,0,1,269.363,189.636Z" transform="translate(-111.044 -54.66)" fill="#fff" fill-rule="evenodd"/>
    <path id="Path_24714" data-name="Path 24714" d="M293.767,191.7c.664.108,1.323.217,1.973.327.888.15,1.576.082,1.808,1.232.187.926,1.28,6.053,1.088,7.4a3.923,3.923,0,0,1-.411,1.263c-1.483,2.842-8.969,4.95-11.817,4.871a15.31,15.31,0,0,1-11.048-6.394c6.021,5.685,15.308,2.642,17.181,1.043s3.465-7.861,3.075-8.62A4.7,4.7,0,0,0,293.767,191.7Z" transform="translate(-115.05 -57.007)" fill="#fce9dd" fill-rule="evenodd"/>
    <path id="Path_24715" data-name="Path 24715" d="M179.829,267.089a3.856,3.856,0,0,0-1.51-.579,14.088,14.088,0,0,1-3.246.013c-.651-.207,3.3,2.865,3.3,2.865A1.75,1.75,0,0,0,179.829,267.089Z" transform="translate(-51.422 -104.435)" fill="#f9c7ab" fill-rule="evenodd"/>
    <path id="Path_24716" data-name="Path 24716" d="M144.665,266.1l.161-.788s.589-1.08,1.011-1.142,3.83-.367,4.335-.007-1.77,2.336-1.8,2.481a10.771,10.771,0,0,1-2.543.667C145.714,267.258,144.665,266.1,144.665,266.1Z" transform="translate(-32.188 -102.84)" fill="#f9c7ab" fill-rule="evenodd"/>
    <path id="Path_24717" data-name="Path 24717" d="M126.067,239.6s16.42-5.943,26.774.49c0,0-.96-14.17-1.7-15.832s-6.632-6.053-8.041-6.053-17.522-6.8-19.667-5.881S126.067,239.6,126.067,239.6Z" transform="translate(-18.378 -70.03)" fill="#510f00" fill-rule="evenodd"/>
    <path id="Path_24718" data-name="Path 24718" d="M243.522,318.035c-1.21.526-5.033-.869-8.348-2.116a5.547,5.547,0,0,1-.259-4.551l1.2-.669,4.744,5.185A2.309,2.309,0,0,0,243.522,318.035Z" transform="translate(-89.178 -132.454)" fill="#ee9073" fill-rule="evenodd"/>
    <path id="Path_24719" data-name="Path 24719" d="M135.963,146.81c-22.175-11.113-30.705,26.431-26.275,40.436.581,1.838,2.422,4.008,8.218,4.217a1.681,1.681,0,0,0,.773-2.276c-.808-2.422-4.722-11.229-3.385-16.264l14.5-.975,3.307,8.833,8.028,5.2,3.429,4.866C156.335,175.728,150.707,142.11,135.963,146.81Z" transform="translate(-9.295 -27.26)" fill="#6a291f" fill-rule="evenodd"/>
    <path id="Path_24720" data-name="Path 24720" d="M211.108,292.754c-.605.2.287,2.566-1.13,2.335s-7.027-3.546-11.437-5.857-11.017-16-11.017-16l.87-.376a44.424,44.424,0,0,1,6.215,2.66s5.026,5.772,8.423,9.505S206.578,290.779,211.108,292.754Z" transform="translate(-59.361 -108.462)" fill="#fbd6bf" fill-rule="evenodd"/>
    <path id="Path_24721" data-name="Path 24721" d="M110.625,186.032a62.849,62.849,0,0,0-1.96,24.846c1.165,8.436,2.72,18.8,13.172,19.174.979-.354,3.372-.179,3.092-1.019-.808-2.424-11.21-28.042-9.873-33.077l14.5-.975,3.307,8.833,8.028,5.2.071,6.79c.849.367,1.9.844,3.165,1.461,3.691-8.085,6.819-20.659,6.476-27.32-8.265-.707-11.288-8.831-11.288-8.831-5.007,4.729-16.253,8.047-23.789,6.944a9.868,9.868,0,0,1-4.9-2.025Zm30.4,36.085.189.317c-.061.082-.122.164-.183.242Z" transform="translate(-9.057 -50.294)" fill="#5d1d10" fill-rule="evenodd"/>
    <path id="Path_24722" data-name="Path 24722" d="M153.969,402.161s.015.219.043.635c.138,2.036.589,8.817,1.105,18.071h20.749c-.3-21.533-2.171-39.1-5.117-42.594-4.268-5.061-20.077-2.374-20.077-2.374S152.114,386.438,153.969,402.161Z" transform="translate(-35.997 -173.339)" fill="#361f1c" fill-rule="evenodd"/>
    <path id="Path_24723" data-name="Path 24723" d="M153.968,402.162s.015.219.043.635c.138,2.036.589,8.817,1.105,18.071h9.422q.063-.7.127-1.389c1.157-12.374,6.065-19.918,9.916-24.036a89.435,89.435,0,0,0-1.993-12.712c-1.591-2.014-3.331-4.232-5.08-6.488-6.176-2.155-16.837-.344-16.837-.344S152.114,386.439,153.968,402.162Z" transform="translate(-35.997 -173.34)" fill="#2a0d09" fill-rule="evenodd"/>
    <path id="Path_24724" data-name="Path 24724" d="M133.521,427.763s-.03.217-.087.63q-.569,4.13-1.162,8.441H111.138c1.832-17.635,4.524-31.206,7.294-34.063,4.608-4.753,20.193-.98,20.193-.98S136.458,412.2,133.521,427.763Z" transform="translate(-10.932 -189.306)" fill="#2a0d09" fill-rule="evenodd"/>
    <path id="Path_24725" data-name="Path 24725" d="M146.693,448.632s-.03.217-.087.63q-.569,4.129-1.162,8.441h-13.53a28.36,28.36,0,0,1,.829-4.662c.969-2.367,9.795-18.068,15.71-19.754C148.316,434.008,146.834,447.886,146.693,448.632Z" transform="translate(-24.104 -210.175)" fill="#361f1c" fill-rule="evenodd"/>
    <path id="Path_24726" data-name="Path 24726" d="M118.3,280.285a54.1,54.1,0,0,0,4.05-6.407,4.447,4.447,0,0,1,1.246-.663c.475-.2.863-1.045,1.447-1.262a21.16,21.16,0,0,1,3.384-.475l13.647-.352c4.713.2,8.053,6.974,11.617,14.251,2.8,5.716.21,13.237-.468,19.1a69.339,69.339,0,0,0-.274,10.42v.008l.006.209c.138,4.011,2.049,16.982,2.026,18.039a2.017,2.017,0,0,1-.6,1.531c-2.037.955-7.2,2.968-15.565,3.464s-19.3-4.852-20.058-5.4a1.294,1.294,0,0,1-.654-1.174c1.8-9.748,4.053-8.509,4.932-18.761C124.319,297.847,118.023,293.485,118.3,280.285Z" transform="translate(-15.344 -107.364)" fill="#db5640" fill-rule="evenodd"/>
    <path id="Path_24727" data-name="Path 24727" d="M154.68,311.286l-.021.157c-.021.157-.043.314-.066.471l-.023.156c-.023.157-.046.314-.071.47l-.024.156-.019.121-.006.036-.025.156,0,.013-.023.143-.026.155-.02.118-.007.038-.026.156v.007l-.052.3-.019.114-.008.041-.027.155-.019.111-.008.043-.027.155-.02.109-.008.045-.028.154a3.546,3.546,0,0,0-2.336-.646c-3.063,0-19.24.813-20.1,1s-4.116,3.747-4.116,6.366c0,2.182,1.8,22.073,3.068,31.4a51.741,51.741,0,0,1-11.863-4.48,1.294,1.294,0,0,1-.654-1.174c1.8-9.748,4.053-8.509,4.932-18.761.866-10.087-1.71-15.357-3.4-21.762.834-1.112,1.447-1.957,1.693-2.353,1.341-2.153,3.632-6.9,3.778-8.332s3.449,8.522,5.507,9.91,21.825.048,22.782-.143a2.44,2.44,0,0,0,1.412-.939A24.273,24.273,0,0,1,154.68,311.286Z" transform="translate(-15.344 -123.128)" fill="#c94329" fill-rule="evenodd"/>
    <path id="Path_24728" data-name="Path 24728" d="M154.737,430.65c.152,1.236.248,2.1.243,2.34a2.017,2.017,0,0,1-.6,1.531c-2.037.955-7.2,2.968-15.565,3.464s-19.3-4.852-20.058-5.4a1.294,1.294,0,0,1-.654-1.174c.2-1.059.4-1.988.6-2.815,2.892,1.367,11.061,4.9,19.217,5.442C144.57,434.477,151.058,432.242,154.737,430.65Z" transform="translate(-15.344 -207.202)" fill="#fffdf2" fill-rule="evenodd"/>
    <path id="Path_24729" data-name="Path 24729" d="M130.076,432.722c.187,1.6.37,3.07.543,4.344a51.738,51.738,0,0,1-11.863-4.48,1.294,1.294,0,0,1-.654-1.174c.2-1.059.4-1.988.6-2.815A66.29,66.29,0,0,0,130.076,432.722Z" transform="translate(-15.344 -207.202)" fill="#fce4d6" fill-rule="evenodd"/>
    <path id="Path_24730" data-name="Path 24730" d="M148.148,233.916l.152,3.559c0,3.574,1.685,9.208-2,10.412-.226.073,3.13,1.833,7.851,4.087.388.185,5.186,3.233,5.567,3.179.877-.125,1.531-5.5,1.735-7.218,0-.025.033-.07.009-.078-3.737-1.483-4.929-7.17-2.521-10.236C160.161,236.072,148.148,233.916,148.148,233.916Z" transform="translate(-33.22 -83.772)" fill="#e27e67" fill-rule="evenodd"/>
    <path id="Path_24731" data-name="Path 24731" d="M130.207,214.671a3.6,3.6,0,1,0,3.543,3.655A3.6,3.6,0,0,0,130.207,214.671Z" transform="translate(-20.705 -71.57)" fill="#e27e67" fill-rule="evenodd"/>
    <path id="Path_24732" data-name="Path 24732" d="M151.249,165.5h0a12.364,12.364,0,0,0-12.518,12.135l-.174,11.2a12.365,12.365,0,0,0,12.136,12.518h0a12.365,12.365,0,0,0,12.518-12.136l.173-11.2A12.363,12.363,0,0,0,151.249,165.5Z" transform="translate(-28.315 -40.395)" fill="#f5ac83" fill-rule="evenodd"/>
    <path id="Path_24733" data-name="Path 24733" d="M139.08,181.368a12.243,12.243,0,0,0-.348,2.718l-.174,11.2a12.366,12.366,0,0,0,12.136,12.518c-13.135-2.8-7.307-18.366-3.228-19.756s8.1-4.868,10.243-4.431,5.605,4.139,5.617,4.62l.059-3.771a12.214,12.214,0,0,0-.6-3.989c-1.125-.183-2.953-4.811-5.332-4.808-2.83,0-6.38,4.658-9.609,4.608a31.591,31.591,0,0,0-8.762,1.089Zm11.614,26.438" transform="translate(-28.315 -46.844)" fill="#ee9073" fill-rule="evenodd"/>
    <path id="Path_24734" data-name="Path 24734" d="M134.465,213.014l2.663-1.065s1.371,3.23-1.132,4.3l.024-1.535A1.52,1.52,0,0,0,134.465,213.014Z" transform="translate(-25.721 -69.845)" fill="#510f00" fill-rule="evenodd"/>
    <path id="Path_24735" data-name="Path 24735" d="M157.292,168.143s-2.439,7.919-20.754,12.283l.405-13.333,9.438-6.437,9.088,1.365s4.848,3.29,5.3,3.986,3.146,9.387,3.146,9.387l-1.835,1.439S157.808,173.222,157.292,168.143Z" transform="translate(-27.036 -37.324)" fill="#6a291f" fill-rule="evenodd"/>
    <path id="Path_24736" data-name="Path 24736" d="M157.292,181.113s-2.439,7.919-20.754,12.283l.156-5.128c7.235-.019,16.26-3.057,20.6-7.155Zm6.447,7.386a15.436,15.436,0,0,1-6.447-7.386c.516,5.079,4.783,8.691,4.783,8.691Z" transform="translate(-27.036 -50.294)" fill="#5d1d10" fill-rule="evenodd"/>
    <path id="Path_24737" data-name="Path 24737" d="M193.719,213.64l-3.383-.795a.67.67,0,0,0-.8.5h0a.67.67,0,0,0,.5.8l3.383.795a.67.67,0,0,0,.8-.5h0A.67.67,0,0,0,193.719,213.64Z" transform="translate(-60.623 -70.402)" fill="#510f00" fill-rule="evenodd"/>
    <path id="Path_24738" data-name="Path 24738" d="M156.842,212.938l-3.413.65a.67.67,0,0,0-.532.781h0a.669.669,0,0,0,.781.531l3.414-.65a.67.67,0,0,0,.532-.781h0A.671.671,0,0,0,156.842,212.938Z" transform="translate(-37.4 -70.464)" fill="#510f00" fill-rule="evenodd"/>
    <path id="Path_24739" data-name="Path 24739" d="M140.86,226.359a.255.255,0,0,1-.47.2c-.007-.018-2.254-5.49-4.107-6.873V219.1c2.129,1.289,4.57,7.238,4.577,7.257Zm-5.426-1.682a3.972,3.972,0,0,1-.537-.039c.691,2.553,2.063,5.29,4.016,6.541.269.172.517.326.747.465q.371.223.707.412a.254.254,0,0,0,.249-.444q-.322-.182-.691-.4c-.239-.144-.485-.3-.737-.457C137.391,229.6,136.109,227.079,135.433,224.677Z" transform="translate(-25.995 -74.38)" fill="#fff" fill-rule="evenodd"/>
    <g id="Group_6665" data-name="Group 6665" transform="translate(114.574 150.71)">
      <path id="Path_24740" data-name="Path 24740" d="M194.944,235.574a1.818,1.818,0,1,0,1.813,1.823A1.818,1.818,0,0,0,194.944,235.574Z" transform="translate(-177.484 -235.533)" fill="#e27e67" fill-rule="evenodd"/>
      <path id="Path_24741" data-name="Path 24741" d="M152.218,235.463a1.818,1.818,0,1,0,1.813,1.822A1.818,1.818,0,0,0,152.218,235.463Z" transform="translate(-150.395 -235.463)" fill="#e27e67" fill-rule="evenodd"/>
    </g>
    <path id="Path_24742" data-name="Path 24742" d="M175.207,245.32a.547.547,0,1,0,1.095.023,2.641,2.641,0,0,0-5.281-.109.548.548,0,1,0,1.1.023,1.546,1.546,0,1,1,3.091.064Z" transform="translate(-48.898 -89.308)" fill="#bc6351" fill-rule="evenodd"/>
    <path id="Path_24743" data-name="Path 24743" d="M147.842,232.333s-1.074-.01-1.331.633a12.776,12.776,0,0,0-.586,5.622c.393,2.218,5.536,4.726,9.488,5.176s8.581-2.218,10.122-4.146,2.621-5.433,2.018-6.074-7.416-2.055-8.7-2.12S153.838,232.258,147.842,232.333Z" transform="translate(-32.914 -82.19)" fill="#fff" fill-rule="evenodd"/>
    <path id="Path_24744" data-name="Path 24744" d="M147.252,234.138a1.037,1.037,0,0,0-.74.552,12.776,12.776,0,0,0-.586,5.622c.393,2.218,5.536,4.726,9.488,5.176,3.014.343,6.422-1.128,8.553-2.7a20.016,20.016,0,0,0-5.775-3.584l-.3.329s-.8,3-2.977,3.356S146.771,240.895,147.252,234.138Z" transform="translate(-32.914 -83.913)" fill="#fce4d6" fill-rule="evenodd"/>
    <path id="Path_24745" data-name="Path 24745" d="M154.775,224.093a.346.346,0,0,1,.025-.692l3.866.139a.346.346,0,0,1,.127.663l-3.412,1.507a.347.347,0,1,1-.279-.635l2.032-.9Z" transform="translate(-38.387 -77.105)" fill="#510f00" fill-rule="evenodd"/>
    <path id="Path_24746" data-name="Path 24746" d="M193.5,225.172a.346.346,0,0,1-.008.692l-2.364-.03,1.988,1a.346.346,0,0,1-.309.619l-3.325-1.666a.346.346,0,0,1,.149-.66Z" transform="translate(-60.477 -78.197)" fill="#510f00" fill-rule="evenodd"/>
    <path id="Path_24747" data-name="Path 24747" d="M117.148,162.16q-.324.831-.618,1.685c16.986,3.752,27.882-6.151,32.864-12.382a8.086,8.086,0,0,0-8.375-1.913C137.314,160.636,122.523,162.026,117.148,162.16Z" transform="translate(-14.35 -30.001)" fill="#804139" fill-rule="evenodd"/>
    <path id="Path_24748" data-name="Path 24748" d="M151.753,274.307c-1.849-4.6-9.206-6.779-12.248-8.5-.188-.107.828-1.61.659-2.022-.176-.427-4.262-1.012-6.2.943-.631.636-.842,2.6-.842,3.563a5.759,5.759,0,0,1,6.131,0c2.324,1.427,8.032,3.241,11.675,6.728a2.109,2.109,0,0,1,.364.517C151.477,275.823,151.753,274.919,151.753,274.307Z" transform="translate(-24.87 -102.438)" fill="#fff9f5" fill-rule="evenodd"/>
    <path id="Path_24749" data-name="Path 24749" d="M183.465,287.766a.271.271,0,1,1,.245-.483c.013.007,4.685,2.293,3.636,7.237a16.211,16.211,0,0,0-.4,5.787,4.517,4.517,0,0,0,1.955,3.262.27.27,0,1,1-.292.455,5.029,5.029,0,0,1-2.2-3.63,16.711,16.711,0,0,1,.4-5.986C187.777,289.878,183.477,287.772,183.465,287.766Z" transform="translate(-56.693 -117.589)" fill="#fff" fill-rule="evenodd"/>
    <path id="Path_24750" data-name="Path 24750" d="M175.888,289.922a.27.27,0,0,1,.42.341,8.869,8.869,0,0,0-1.494,7.3,14.6,14.6,0,0,0,1.777,4.091c1.037,1.8,1.929,3.354,1.331,6.036a.27.27,0,0,1-.528-.117c.553-2.477-.29-3.944-1.271-5.65a15.08,15.08,0,0,1-1.837-4.234A9.447,9.447,0,0,1,175.888,289.922Z" transform="translate(-50.805 -119.217)" fill="#fff" fill-rule="evenodd"/>
    <path id="Path_24751" data-name="Path 24751" d="M182.535,266.442c.565.069-.681-.085-.721.461-.016.217,1.245,1.012,1.184,1.307-.475,2.279-1.809,6.584-1.185,7.683l.61,1.076,1.528-5.261.851-2.93A1.951,1.951,0,0,0,182.535,266.442Z" transform="translate(-55.637 -104.368)" fill="#fff9f5" fill-rule="evenodd"/>
    <path id="Path_24752" data-name="Path 24752" d="M183.151,334.45a.646.646,0,1,1-.646.646A.646.646,0,0,1,183.151,334.45Z" transform="translate(-56.179 -147.512)" fill="#fff" fill-rule="evenodd"/>
    <path id="Path_24753" data-name="Path 24753" d="M195.262,329.1a.646.646,0,1,1-.646.646A.646.646,0,0,1,195.262,329.1Z" transform="translate(-63.858 -144.122)" fill="#fff" fill-rule="evenodd"/>
    <path id="Path_24754" data-name="Path 24754" d="M339.676,356.367a.684.684,0,0,1,1.274-.5c.008.02,2.642,6.878,5.426,8.037a.684.684,0,0,1-.525,1.263C342.517,363.781,339.684,356.388,339.676,356.367Z" transform="translate(-155.798 -160.816)" fill="#3f2b28" fill-rule="evenodd"/>
    <path id="Path_24755" data-name="Path 24755" d="M292.214,251.882a.271.271,0,1,0-.246-.484c-.013.007-4.685,2.293-3.636,7.237a16.2,16.2,0,0,1,.4,5.788,4.517,4.517,0,0,1-1.955,3.262.27.27,0,1,0,.293.455,5.028,5.028,0,0,0,2.2-3.63,16.708,16.708,0,0,0-.4-5.987C287.9,253.993,292.2,251.888,292.214,251.882Z" transform="translate(-122.209 -94.838)" fill="#fff" fill-rule="evenodd"/>
    <path id="Path_24756" data-name="Path 24756" d="M302.606,254.036a.271.271,0,0,0-.42.342,8.864,8.864,0,0,1,1.494,7.3,14.6,14.6,0,0,1-1.777,4.091c-1.038,1.8-1.93,3.354-1.331,6.035a.27.27,0,1,0,.528-.117c-.553-2.477.291-3.943,1.271-5.649a15.062,15.062,0,0,0,1.837-4.235A9.45,9.45,0,0,0,302.606,254.036Z" transform="translate(-130.912 -96.466)" fill="#fff" fill-rule="evenodd"/>
    <path id="Path_24757" data-name="Path 24757" d="M300.183,298.565a.646.646,0,1,0,.645.647A.647.647,0,0,0,300.183,298.565Z" transform="translate(-130.378 -124.76)" fill="#fff" fill-rule="evenodd"/>
    <path id="Path_24758" data-name="Path 24758" d="M288.07,293.218a.646.646,0,1,0,.646.646A.646.646,0,0,0,288.07,293.218Z" transform="translate(-122.699 -121.37)" fill="#fff" fill-rule="evenodd"/>
    <path id="Path_24759" data-name="Path 24759" d="M161.182,376.991c2.514-.193,2.369-.773,4.4-2.175s3.239-1.644,2.755-.483a10.2,10.2,0,0,1-1.305,2.176,7.591,7.591,0,0,0,2.231-.021c1.533-.193,3.751-.717,4.2-.269.87.869-1.45,1.836-1.837,1.981s2.321-.919,1.934.725c-.163.692-2.367,1.6-1.8,1.369,1.979-.812,1.629,1.412-1.484,2.547a9.478,9.478,0,0,1-6.381.1c-2.368-.628-4.4-1.015-4.737-1.353s-1.015-4.641-1.015-4.641Z" transform="translate(-40.73 -172.33)" fill="#f5ac83" fill-rule="evenodd"/>
    <path id="Path_24760" data-name="Path 24760" d="M161.182,382.224a5.957,5.957,0,0,0,1.9-.376c-.266,2.672-.965,4.638,2.151,5.739a10.227,10.227,0,0,0,5.723.2c-.212.1-.441.2-.687.288a9.479,9.479,0,0,1-6.381.1c-2.368-.628-4.4-1.015-4.737-1.353s-1.015-4.641-1.015-4.641Z" transform="translate(-40.73 -177.563)" fill="#ee9073" fill-rule="evenodd"/>
    <path id="Path_24761" data-name="Path 24761" d="M94.17,303.141c-2.709,12.068,15.3,19.855,25.866,21.031,1.172-1.652,2.319-6.046,1.336-7.693-2.918-1.1-9.873-3.5-13.91-6.936-6.3-5.358,3.37-14.187,4.148-18.736.507-2.97-.68-8.865-3.333-10.871C103.961,276.671,94.822,300.236,94.17,303.141Z" transform="translate(0 -112.753)" fill="#fff9f5" fill-rule="evenodd"/>
    <g id="Group_6666" data-name="Group 6666" transform="translate(93.896 169.805)">
      <path id="Path_24762" data-name="Path 24762" d="M123.771,314.182c-5.315-5.391,3.862-13.869,4.619-18.3a15.8,15.8,0,0,0-1.371-8.249c.59,5.283-3.147,11.2-5.626,16.315C119.138,308.606,120.877,311.838,123.771,314.182Z" transform="translate(-110.676 -287.636)" fill="#fbd6bf" fill-rule="evenodd"/>
      <path id="Path_24763" data-name="Path 24763" d="M94.547,339.92c-.147.5-.273.989-.377,1.447-2.709,12.068,15.3,19.855,25.866,21.031a7.4,7.4,0,0,0,.762-1.466,47.548,47.548,0,0,1-12.317-3.143C99.85,354.606,94.689,349.507,94.547,339.92Z" transform="translate(-93.896 -320.785)" fill="#fbd6bf" fill-rule="evenodd"/>
    </g>
    <path id="Path_24764" data-name="Path 24764" d="M181.527,237.166c-.575-.35-3.448-1.274-4.07-1.091-.21.062-.288.672.116.948a17.327,17.327,0,0,0,2.436,1.3c.307.142-.489-.18-1.483-.272-1.422-.132-1.871-.407-2,.135-.262,1.066,2.5,1.567,2.855,1.676s-2.986-.68-2.558.766c.181.609,2.551,1.112,2.036.935-1.807-.622-2.933.457.9,1.553.62.177,2.06,2.218,3.113,3,1.177.875,2.189.732,3,1.205.63.366,1.2,1.473,1.281,1.381a17.806,17.806,0,0,0,.911-2.951,30.427,30.427,0,0,0-2.147-4.4A15.031,15.031,0,0,0,181.527,237.166Z" transform="translate(-52.374 -85.126)" fill="#f5ac83" fill-rule="evenodd"/>
    <path id="Path_24765" data-name="Path 24765" d="M179.956,253.239a8.683,8.683,0,0,0,1.985.777c.62.177,2.06,2.218,3.113,3,1.177.875,2.189.732,3,1.205a4.434,4.434,0,0,1,1.075,1.177,4.163,4.163,0,0,1,.419-.253c.3-.847.7-2.494.7-2.494-.313-.574-.61-1.419-1-2.319-.191.18-.422.407-.7.692a2.94,2.94,0,0,1-4.544-.217C182.738,253.318,182.172,253.914,179.956,253.239Z" transform="translate(-54.563 -96.023)" fill="#ee9073" fill-rule="evenodd"/>
    <path id="Path_24766" data-name="Path 24766" d="M196.8,260.147a20.024,20.024,0,0,1,3.47-2.985.752.752,0,0,1,.49.024c2.3,1.085,13.259,10.581,17.8,18.232,2.772,4.672,2.361,8.475-1.585,9.782-6.124.986-15.606-18.173-20.049-24.158C196.815,260.893,196.386,260.568,196.8,260.147Z" transform="translate(-65.131 -98.491)" fill="#fff9f5" fill-rule="evenodd"/>
    <path id="Path_24767" data-name="Path 24767" d="M146.919,263.443c-.578.242-.948.591-.916,1s.451.862,1.447,1.333a3.881,3.881,0,0,0,.89-1.9.185.185,0,0,0-.011-.037.357.357,0,0,0-.187-.141A4.232,4.232,0,0,0,146.919,263.443Z" transform="translate(-33.035 -102.493)" fill="#fbd6bf" fill-rule="evenodd"/>
  </g>
</svg>
