<svg xmlns="http://www.w3.org/2000/svg" width="24" height="24" viewBox="0 0 27 27">
  <path id="ic" d="M23.044,3.952A13.5,13.5,0,1,0,27,13.5,13.5,13.5,0,0,0,23.044,3.952Zm-2.6,14.853,0,0v0l-.684.679a3.6,3.6,0,0,1-3.4.972A11.962,11.962,0,0,1,12.888,18.9a16.051,16.051,0,0,1-2.741-2.21A16.174,16.174,0,0,1,8.1,14.2a12.6,12.6,0,0,1-1.539-3.114,3.6,3.6,0,0,1,.9-3.677l.8-.8a.571.571,0,0,1,.808,0l0,0L11.6,9.141a.571.571,0,0,1,0,.808l0,0-1.485,1.485a1.21,1.21,0,0,0-.126,1.575,17.367,17.367,0,0,0,1.778,2.075,17.261,17.261,0,0,0,2.34,1.967,1.219,1.219,0,0,0,1.557-.135L17.1,15.459a.571.571,0,0,1,.808,0l0,0L20.443,18A.571.571,0,0,1,20.445,18.805Z" transform="translate(0 0)" fill="#fff"/>
</svg>
